<?xml version="1.0" encoding="UTF-8"?>
<svg version="1.1" xmlns="http://www.w3.org/2000/svg" width="1138" height="755">
<path d="M0 0 C375.54 0 751.08 0 1138 0 C1138 249.15 1138 498.3 1138 755 C762.46 755 386.92 755 0 755 C0 505.85 0 256.7 0 0 Z " fill="#FDFDFD" transform="translate(0,0)"/>
<path d="M0 0 C5.45911205 1.57388541 10.79850147 3.17842076 16.01171875 5.4609375 C17.08470215 5.9264502 18.15768555 6.39196289 19.26318359 6.87158203 C20.39320801 7.36770996 21.52323242 7.86383789 22.6875 8.375 C25.15188059 9.44379585 27.61670554 10.51151605 30.08203125 11.578125 C30.71850586 11.8541153 31.35498047 12.13010559 32.01074219 12.41445923 C38.92832376 15.41096518 45.87196662 18.34483888 52.82290649 21.26300049 C54.18121822 21.833571 55.53911489 22.4051307 56.89657593 22.97772217 C58.80251804 23.78164826 60.70966851 24.58263638 62.6171875 25.3828125 C63.70628418 25.84059082 64.79538086 26.29836914 65.91748047 26.77001953 C76.9077222 31.1553227 84.62784584 31.0670646 95.53143311 26.41091919 C97.56855789 25.51586377 99.59697709 24.60296736 101.625 23.6875 C103.66763784 22.7862649 105.71268765 21.89081727 107.75912476 20.99824524 C109.61275716 20.18655327 111.46016887 19.36069763 113.30712891 18.53393555 C117.45620579 16.81050238 121.73777584 15.42074139 126 14 C126.33 34.79 126.66 55.58 127 77 C129.64 77 132.28 77 135 77 C136.83788538 75.16211462 136.17305323 72.20235996 136.20532227 69.73608398 C136.21522186 69.08244873 136.22512146 68.42881348 136.23532104 67.75537109 C136.26701634 65.58564936 136.29172492 63.4159057 136.31640625 61.24609375 C136.33696887 59.74536048 136.35796515 58.2446331 136.37937927 56.74391174 C136.43467155 52.78688307 136.48404911 48.82980151 136.53222656 44.87268066 C136.5823895 40.8375984 136.63810268 36.80259328 136.69335938 32.76757812 C136.8010284 24.84511723 136.90245379 16.92259196 137 9 C140.43368594 7.49115787 143.87253549 5.99446599 147.3125 4.5 C148.28896484 4.07074219 149.26542969 3.64148438 150.27148438 3.19921875 C151.20927734 2.79316406 152.14707031 2.38710937 153.11328125 1.96875 C153.97735596 1.59169922 154.84143066 1.21464844 155.73168945 0.82617188 C158 0 158 0 161 0 C161.11582719 12.30000675 161.20468188 24.59988386 161.25906086 36.90032482 C161.28515956 42.61188705 161.32056339 48.32307628 161.37719727 54.03442383 C161.4315061 59.54576091 161.46141848 65.05673913 161.47438622 70.56832314 C161.48362803 72.67151858 161.50167521 74.77469429 161.52865028 76.87773705 C161.56492504 79.82281376 161.56994593 82.76640591 161.56762695 85.71166992 C161.59459152 87.01718559 161.59459152 87.01718559 161.62210083 88.34907532 C161.58454273 92.75451615 161.45661445 94.43857509 158.58293152 97.97187805 C157.73056412 98.64115829 156.87819672 99.31043854 156 100 C155.37480469 100.57363281 154.74960937 101.14726562 154.10546875 101.73828125 C129.79056858 121.69531743 96.42791997 126.95885955 66 125 C43.60094274 122.69453606 20.82897842 114.25827376 4 99 C3.30706848 98.49088074 2.61413696 97.98176147 1.90020752 97.45721436 C-0.96617907 93.75060536 -0.52917562 90.38744275 -0.45410156 85.82519531 C-0.45468567 84.898022 -0.45526978 83.97084869 -0.45587158 83.01557922 C-0.45308614 79.95271288 -0.42197199 76.89082121 -0.390625 73.828125 C-0.38316426 71.70392387 -0.37747054 69.57971585 -0.37347412 67.45550537 C-0.35820474 61.86579369 -0.31891132 56.27649804 -0.2746582 50.68695068 C-0.23373385 44.98276396 -0.21546914 39.27850998 -0.1953125 33.57421875 C-0.15241863 22.38262976 -0.08415122 11.19134948 0 0 Z " fill="#FBFCFD" transform="translate(493,235)"/>
<path d="M0 0 C0.75836151 0.31394211 1.51672302 0.62788422 2.29806519 0.95133972 C4.79415687 1.98750482 7.28368653 3.03854457 9.7734375 4.08984375 C11.53671654 4.82548659 13.30039499 5.56017271 15.06445312 6.29394531 C18.68499967 7.8018292 22.30297743 9.31564255 25.91894531 10.83447266 C30.63254874 12.81344424 35.35357991 14.77388389 40.078125 16.7265625 C64.84634797 26.97504642 89.49654737 37.50284544 114.1484375 48.02734375 C112.0729277 50.30368519 110.30353146 51.59373609 107.45678711 52.75390625 C106.7192067 53.05888031 105.98162628 53.36385437 105.22169495 53.67807007 C104.42279343 53.99958038 103.62389191 54.3210907 102.80078125 54.65234375 C101.9645372 54.99617096 101.12829315 55.33999817 100.26670837 55.69424438 C97.54270466 56.81256874 94.81456059 57.92034324 92.0859375 59.02734375 C88.34658287 60.55336965 84.60877152 62.08315363 80.87109375 63.61328125 C79.94703735 63.99068451 79.02298096 64.36808777 78.07092285 64.75692749 C72.64695252 66.97870118 67.25549855 69.25934635 61.89453125 71.62890625 C60.71318604 72.14710938 59.53184082 72.6653125 58.31469727 73.19921875 C56.18032149 74.14156758 54.05146907 75.09656699 51.92944336 76.06640625 C46.65442506 78.37894103 42.8659745 79.98001609 37.1484375 78.02734375 C34.2265625 75.83984375 34.2265625 75.83984375 31.3984375 73.02734375 C30.35528502 72.01572729 29.30966274 71.00665206 28.26171875 70 C27.74174316 69.4961377 27.22176758 68.99227539 26.68603516 68.47314453 C24.41998342 66.34237946 22.01427993 64.40682289 19.5859375 62.46484375 C15.82005561 59.43376808 12.20513994 56.30152798 8.6484375 53.02734375 C6.81723634 51.3583347 4.98388085 49.69168645 3.1484375 48.02734375 C2.19453125 47.15851563 1.240625 46.2896875 0.2578125 45.39453125 C-0.68578125 44.57210937 -1.629375 43.7496875 -2.6015625 42.90234375 C-3.44203125 42.15726563 -4.2825 41.4121875 -5.1484375 40.64453125 C-8.58212092 38.59027556 -10.91721391 38.65671671 -14.8515625 39.02734375 C-16.13712558 40.11852725 -16.13712558 40.11852725 -16.296875 42.73828125 C-15.67857709 47.3050079 -13.18162263 48.97425235 -9.7265625 51.65234375 C-8.43576507 52.70259324 -7.14541293 53.75339021 -5.85546875 54.8046875 C-5.19047363 55.33690918 -4.52547852 55.86913086 -3.84033203 56.41748047 C-0.71887679 58.94422683 2.30310924 61.58304016 5.3359375 64.21484375 C10.38079377 68.56373645 15.50839417 72.77861941 20.74609375 76.89453125 C23.56896264 79.40068802 25.79325472 82.08021663 28.1484375 85.02734375 C24.11053042 86.84342863 20.07202063 88.65816457 16.03295898 90.47167969 C14.66039863 91.08817551 13.28800058 91.70503282 11.91577148 92.32226562 C9.93776837 93.21190069 7.95917577 94.10021309 5.98046875 94.98828125 C4.79171143 95.52243652 3.6029541 96.0565918 2.37817383 96.60693359 C-4.85837797 99.7895066 -9.99699794 101.57557368 -17.78808594 99.09082031 C-21.30680569 97.69467277 -24.76891754 96.19124891 -28.2265625 94.65234375 C-29.569194 94.06962133 -30.91264614 93.48878674 -32.25683594 92.90966797 C-34.4320401 91.9719338 -36.60647962 91.03265428 -38.77844238 90.08743286 C-47.26451545 86.39524787 -55.81175254 82.85152946 -64.35580444 79.2961731 C-78.31394645 73.4814829 -92.25161275 67.61736714 -106.15734863 61.67840576 C-107.63747386 61.04642824 -109.11801048 60.41541317 -110.59899902 59.78546143 C-118.47305796 56.43381654 -126.2600365 52.9904426 -133.8515625 49.02734375 C-131.04254628 46.77512197 -128.35521178 45.23071521 -125.04345703 43.8293457 C-123.60413818 43.21556564 -123.60413818 43.21556564 -122.13574219 42.58938599 C-121.09579102 42.15254486 -120.05583984 41.71570374 -118.984375 41.265625 C-117.89398926 40.80251923 -116.80360352 40.33941345 -115.68017578 39.86227417 C-112.11453192 38.34947842 -108.54561819 36.84457037 -104.9765625 35.33984375 C-102.5139733 34.29706862 -100.05155913 33.25388926 -97.58935547 32.21020508 C-91.46956694 29.6174412 -85.34664746 27.03216436 -79.22265625 24.44934082 C-76.1375583 23.1479827 -73.05300386 21.84534929 -69.96875 20.54199219 C-61.27652496 16.8692507 -52.57992967 13.20732692 -43.87600708 9.56239319 C-39.37550072 7.67496656 -34.88838354 5.75878802 -30.40625 3.828125 C-28.72378174 3.10943237 -28.72378174 3.10943237 -27.00732422 2.3762207 C-24.99221948 1.51489828 -22.98044216 0.64572063 -20.97314453 -0.23364258 C-20.10802246 -0.60126709 -19.24290039 -0.9688916 -18.3515625 -1.34765625 C-17.619375 -1.66476563 -16.8871875 -1.981875 -16.1328125 -2.30859375 C-10.15497835 -4.0487167 -5.52343764 -2.35943404 0 0 Z " fill="#FBFBFD" transform="translate(583.8515625,154.97265625)"/>
<path d="M0 0 C1.57282408 0.67861827 3.14658099 1.355078 4.72119141 2.02954102 C8.07585666 3.46841115 11.42630007 4.91656047 14.77441406 6.37060547 C22.70500673 9.80446842 30.68884199 13.11131264 38.66665649 16.43353271 C43.18783718 18.31817736 47.70528215 20.21172196 52.22265625 22.10546875 C53.5602726 22.6661203 53.5602726 22.6661203 54.9249115 23.23809814 C64.5572124 27.27635128 74.18580886 31.32339425 83.8125 35.375 C84.58865662 35.70152557 85.36481323 36.02805115 86.16448975 36.36447144 C87.29325531 36.83942551 87.29325531 36.83942551 88.44482422 37.32397461 C89.17856262 37.63261948 89.91230103 37.94126434 90.66827393 38.25926208 C92.0907262 38.85921306 93.51226562 39.46133381 94.93280029 40.06581116 C98.29734134 41.49686335 101.66819478 42.89657244 105.07177734 44.23242188 C106.03793221 44.62098358 106.03793221 44.62098358 107.02360535 45.01739502 C108.76112752 45.71518732 110.50474484 46.39774906 112.2487793 47.07910156 C115.44090834 48.8727444 116.50332629 50.31876136 118 53.625 C118.40663016 57.60997554 118.19906809 60.26763145 116 63.625 C113.77954102 64.96191406 113.77954102 64.96191406 111.00390625 66.140625 C109.96814453 66.58792969 108.93238281 67.03523438 107.86523438 67.49609375 C106.77533203 67.95113281 105.68542969 68.40617187 104.5625 68.875 C103.53833984 69.31457031 102.51417969 69.75414062 101.45898438 70.20703125 C98.68658596 71.39302984 95.90854596 72.56450416 93.12807655 73.73140717 C89.09962354 75.42298012 85.07332822 77.1196828 81.04663086 78.81542969 C80.17314751 79.18324554 79.29966415 79.5510614 78.39971161 79.93002319 C76.26646222 80.82831986 74.13322528 81.72664608 72 82.625 C72.00079559 83.87035019 72.00159119 85.11570038 72.00241089 86.39878845 C72.00601846 98.15437933 71.97814698 109.90953372 71.9197216 121.6649847 C71.89069112 127.70815737 71.87262224 133.75094278 71.87988281 139.79418945 C71.88648625 145.63000792 71.86393202 151.46506184 71.82144547 157.30072212 C71.8103325 159.52333415 71.80959766 161.74602387 71.81957626 163.96864128 C71.83179194 167.09053013 71.80658856 170.2101007 71.77294922 173.33178711 C71.78517014 174.24385422 71.79739105 175.15592133 71.8099823 176.09562683 C71.65421793 184.15583291 68.13684247 189.0544653 62.9375 194.97265625 C53.60111072 203.2361137 42.43534199 208.82477765 31 213.625 C30.10023438 214.03363281 29.20046875 214.44226563 28.2734375 214.86328125 C-3.39737093 228.35888959 -41.21648517 227.04086397 -73 214.625 C-86.86052449 208.76544167 -103.52564519 200.49619397 -112 187.625 C-112.88213881 184.7862999 -113.12390459 182.2355293 -113.12025452 179.27166748 C-113.12162918 178.40792511 -113.12300385 177.54418274 -113.12442017 176.65426636 C-113.11902725 175.24517502 -113.11902725 175.24517502 -113.11352539 173.80761719 C-113.11367142 172.81216888 -113.11381744 171.81672058 -113.1139679 170.79110718 C-113.11327132 167.50134094 -113.1054908 164.21163135 -113.09765625 160.921875 C-113.09579117 158.64072704 -113.09436769 156.35957868 -113.09336853 154.07843018 C-113.08955048 148.0746144 -113.07972624 142.07082282 -113.06866455 136.0670166 C-113.05843515 129.9405144 -113.05386763 123.81400828 -113.04882812 117.6875 C-113.03810336 105.66665604 -113.02103545 93.64583003 -113 81.625 C-113.90498734 81.49132523 -114.80997467 81.35765045 -115.74238586 81.21992493 C-118.43814448 80.72760941 -120.61184434 80.1443249 -123.12182617 79.10620117 C-123.87247849 78.79885544 -124.6231308 78.4915097 -125.39653015 78.17485046 C-126.18735489 77.8425795 -126.97817963 77.51030853 -127.79296875 77.16796875 C-128.62081375 76.82373367 -129.44865875 76.4794986 -130.30158997 76.12483215 C-132.04353298 75.3977032 -133.78404617 74.66714047 -135.52319336 73.93334961 C-138.18395097 72.81399304 -140.85225649 71.71421264 -143.52148438 70.61523438 C-145.21664089 69.90482597 -146.91131957 69.19327606 -148.60546875 68.48046875 C-149.40236618 68.15427048 -150.19926361 67.8280722 -151.02030945 67.49198914 C-158.06408459 64.48133597 -158.06408459 64.48133597 -160 60.625 C-160.5915633 55.966439 -160.81774568 53.83751945 -158.1875 49.9375 C-150.59904283 44.43214872 -141.11407009 41.36332348 -132.5 37.75 C-125.00152135 34.59237429 -117.50913844 31.42221953 -110.03515625 28.20703125 C-109.3508252 27.91265167 -108.66649414 27.61827209 -107.96142578 27.31497192 C-107.26662109 27.01606049 -106.57181641 26.71714905 -105.85595703 26.40917969 C-90.64353299 19.86465858 -75.39768272 13.4026631 -60.125 7 C-59.21170929 6.61641327 -58.29841858 6.23282654 -57.35745239 5.83761597 C-52.30380748 3.7159969 -47.24347797 1.61206505 -42.1739502 -0.47131348 C-40.18837038 -1.29669656 -38.21600245 -2.14711645 -36.24511719 -3.00683594 C-22.3220394 -8.85083766 -13.19386196 -5.8434057 0 0 Z M-33.33984375 7.859375 C-34.15795532 8.20449127 -34.97606689 8.54960754 -35.81896973 8.90518188 C-38.52958269 10.0516311 -41.23342296 11.21322826 -43.9375 12.375 C-45.84798818 13.18665296 -47.75888487 13.99734497 -49.67016602 14.80712891 C-53.70724163 16.51988837 -57.74143025 18.23921059 -61.7734375 19.96386719 C-67.94817019 22.6048177 -74.12970267 25.22955913 -80.3125 27.8515625 C-89.21769348 31.62977941 -98.11753652 35.42035852 -107.01394653 39.21920776 C-111.9998715 41.34757127 -116.98834319 43.46966014 -121.98149109 45.58102417 C-124.65704125 46.71272081 -127.33112293 47.84785656 -130.00491333 48.98370361 C-131.75573165 49.725934 -133.50857169 50.46338982 -135.26147461 51.20068359 C-136.2747583 51.63203613 -137.28804199 52.06338867 -138.33203125 52.5078125 C-139.62717651 53.05526123 -139.62717651 53.05526123 -140.94848633 53.61376953 C-143.1532784 54.56387054 -143.1532784 54.56387054 -145 56.625 C-133.68784724 62.5580797 -122.04858992 67.50081747 -110.25 72.375 C-108.32357904 73.17522104 -106.39739286 73.97600747 -104.47143555 74.77734375 C-101.60730775 75.96892689 -98.74304439 77.16016863 -95.87797546 78.3494873 C-88.50875584 81.40863487 -81.15608356 84.50475503 -73.8125 87.625 C-62.82581651 92.28607084 -51.82822726 96.92358225 -40.78613281 101.45214844 C-38.82841882 102.27626849 -36.88597563 103.13715814 -34.95605469 104.02441406 C-33.42706543 104.71229004 -33.42706543 104.71229004 -31.8671875 105.4140625 C-30.9582373 105.8363916 -30.04928711 106.2587207 -29.11279297 106.69384766 C-21.59958374 108.94132844 -15.62073223 107.6081443 -8.68359375 104.34375 C-7.94166275 104.01080933 -7.19973175 103.67786865 -6.43531799 103.33483887 C-4.09527769 102.28045642 -1.76659671 101.20330785 0.5625 100.125 C2.15880789 99.4008047 3.75580813 98.6781335 5.35351562 97.95703125 C9.24389755 96.19719291 13.12427607 94.41687499 17 92.625 C13.11429227 87.84733171 9.04094395 83.68849228 4.3125 79.75 C3.70092041 79.2331665 3.08934082 78.71633301 2.45922852 78.18383789 C-1.18798221 75.11082638 -4.86867278 72.0793061 -8.5625 69.0625 C-9.85800781 67.99902344 -9.85800781 67.99902344 -11.1796875 66.9140625 C-13.29442701 65.19766727 -15.4239023 63.51171385 -17.5703125 61.8359375 C-18.77644151 60.87029087 -19.98217659 59.904152 -21.1875 58.9375 C-21.76508057 58.49784912 -22.34266113 58.05819824 -22.93774414 57.60522461 C-25.83066743 55.25436694 -26.93592643 54.1170145 -27.42578125 50.35546875 C-27 47.625 -27 47.625 -26 46.625 C-22.74596805 46.18515588 -20.16022901 45.94429787 -17.24560547 47.65429688 C-15.3941834 49.15479581 -13.66366267 50.73191468 -11.9375 52.375 C-10.6138731 53.5787761 -9.28964075 54.78188676 -7.96484375 55.984375 C-7.30210449 56.59603516 -6.63936523 57.20769531 -5.95654297 57.83789062 C-3.03349098 60.50781084 -0.01943846 63.06532206 3 65.625 C6.71641646 68.79848538 10.42019268 71.98569516 14.10546875 75.1953125 C15.12737305 76.08476562 15.12737305 76.08476562 16.16992188 76.9921875 C17.48634169 78.13911667 18.80150621 79.28748871 20.11523438 80.4375 C21.00758789 81.21480469 21.00758789 81.21480469 21.91796875 82.0078125 C22.44156982 82.46559082 22.9651709 82.92336914 23.50463867 83.39501953 C26.33386267 85.72214288 27.475461 86.65633238 31.22070312 86.43261719 C35.18947085 85.58451101 38.76015606 84.30300539 42.46875 82.703125 C43.52771736 82.25827003 43.52771736 82.25827003 44.608078 81.8044281 C46.90879475 80.83580679 49.20440364 79.85568734 51.5 78.875 C53.09580535 78.1995564 54.69191927 77.52484143 56.28833008 76.85083008 C58.74164738 75.81450109 61.1945237 74.77719883 63.64595032 73.73640442 C69.16120756 71.39518268 74.69047256 69.09059395 80.23046875 66.80859375 C82.36704226 65.92544331 84.50338414 65.04173503 86.63964844 64.15783691 C88.0022639 63.59536004 89.36570771 63.03488557 90.72998047 62.47644043 C92.6181093 61.70272564 94.50252299 60.91996289 96.38671875 60.13671875 C97.45108154 59.69803467 98.51544434 59.25935059 99.61206055 58.80737305 C102.13536967 57.85685194 102.13536967 57.85685194 103 55.625 C63.48489383 38.70153996 63.48489383 38.70153996 23.796875 22.18994141 C20.02487093 20.64079845 16.26517209 19.06271337 12.50526428 17.48448181 C8.91540029 15.97933583 5.32192728 14.48292442 1.72799683 12.98751831 C-0.03141611 12.253179 -1.78932864 11.51523314 -3.54562378 10.77346802 C-5.99388189 9.74016561 -8.44734881 8.7202975 -10.90234375 7.703125 C-11.63223511 7.39130783 -12.36212646 7.07949066 -13.11413574 6.75822449 C-20.84885808 3.58654224 -25.85852416 4.61030231 -33.33984375 7.859375 Z M-102 87.625 C-102.16231277 99.89036691 -102.28663193 112.15547763 -102.3626852 124.42170048 C-102.39919056 130.11770165 -102.44869281 135.81296715 -102.52807617 141.50854492 C-102.60423044 147.00695951 -102.64601058 152.50466731 -102.6641407 158.00356865 C-102.67705778 160.09958458 -102.70228281 162.19556256 -102.7401104 164.29127693 C-102.79106359 167.23156907 -102.79791821 170.16895532 -102.79467773 173.10961914 C-102.81984467 173.97277237 -102.8450116 174.8359256 -102.87094116 175.72523499 C-102.81328745 180.57212957 -102.09578056 183.05938776 -98.65150452 186.56932068 C-85.95570735 197.81203649 -69.33777951 205.55937745 -53 209.625 C-51.79859375 209.9240625 -50.5971875 210.223125 -49.359375 210.53125 C-17.45629415 217.63502931 17.08925024 211.38502072 45 194.625 C52.86154118 189.53366954 52.86154118 189.53366954 59 182.625 C59.18498136 179.57362914 59.25205092 176.61473504 59.22705078 173.5637207 C59.22734283 172.63669342 59.22763489 171.70966614 59.22793579 170.75454712 C59.22654104 167.68653037 59.21097293 164.61875565 59.1953125 161.55078125 C59.19158289 159.42514682 59.18873567 157.29951067 59.18673706 155.1738739 C59.17909654 149.57607283 59.1594444 143.97837535 59.1373291 138.38061523 C59.11687973 132.66977337 59.10773729 126.95891479 59.09765625 121.24804688 C59.07619895 110.04031904 59.0420579 98.83266813 59 87.625 C55.56506424 88.22272664 52.55768504 89.10027784 49.35546875 90.47265625 C48.51435547 90.83037109 47.67324219 91.18808594 46.80664062 91.55664062 C45.94232422 91.92982422 45.07800781 92.30300781 44.1875 92.6875 C43.30384766 93.06455078 42.42019531 93.44160156 41.50976562 93.83007812 C39.33798876 94.75748554 37.16818633 95.68923634 35 96.625 C34.98969254 97.46216049 34.97938507 98.29932098 34.96876526 99.16184998 C34.87096218 107.03474736 34.76847275 114.90756658 34.66066074 122.78033352 C34.60539471 126.82821817 34.55196898 130.87611 34.50268555 134.92407227 C34.45509607 138.82742362 34.4027555 142.73068449 34.34705925 146.6339283 C34.32661106 148.12631045 34.30790213 149.61871743 34.29092598 151.11114311 C34.2669362 153.19454849 34.23687481 155.2777814 34.20532227 157.36108398 C34.18977798 158.54911118 34.1742337 159.73713837 34.15821838 160.96116638 C34 163.625 34 163.625 33 164.625 C30.36 164.625 27.72 164.625 25 164.625 C24.67 143.835 24.34 123.045 24 101.625 C18.3050623 103.52331257 13.13938511 105.33875541 7.7265625 107.76171875 C6.39366037 108.34538677 5.0603128 108.92803839 3.7265625 109.50976562 C1.67317254 110.40879758 -0.37684904 111.31333467 -2.41992188 112.2355957 C-12.11958015 116.5997431 -20.105839 119.38429835 -30.765625 116.6640625 C-31.91546875 116.19742188 -33.0653125 115.73078125 -34.25 115.25 C-34.91725098 114.98380859 -35.58450195 114.71761719 -36.27197266 114.44335938 C-42.97170492 111.73253763 -49.58182392 108.79335429 -56.19702148 105.88378906 C-64.74774437 102.13304393 -73.35448862 98.52541559 -81.98443604 94.96166992 C-83.53409145 94.32154275 -85.08320719 93.68010753 -86.6317749 93.03735352 C-88.81159064 92.13314581 -90.99333806 91.23378178 -93.17578125 90.3359375 C-93.83617905 90.06143768 -94.49657684 89.78693787 -95.17698669 89.50411987 C-98.48004633 88.08750349 -98.48004633 88.08750349 -102 87.625 Z " fill="#0A37B5" transform="translate(595,147.375)"/>
<path d="M0 0 C5.22859225 -0.12459983 10.45630019 -0.21480498 15.68603516 -0.2746582 C17.46092809 -0.29963627 19.23571993 -0.33363126 21.01025391 -0.37719727 C41.39096661 -0.86463693 41.39096661 -0.86463693 50.08520508 6.8503418 C57.02916959 13.73557956 59.36024669 22.22794313 59.5 31.8125 C59.3864135 41.17447746 57.77046322 52.0863742 51.6796875 59.5390625 C43.74683499 66.43879934 35.4207113 68.17404751 25.1953125 68.09765625 C24.4713327 68.0962413 23.74735291 68.09482635 23.00143433 68.09336853 C20.70924593 68.08781075 18.41715843 68.07526633 16.125 68.0625 C14.56250142 68.05747953 13.00000129 68.05291759 11.4375 68.04882812 C7.62496165 68.03785519 3.81249788 68.0206201 0 68 C0 63.71 0 59.42 0 55 C1.34578125 54.98598145 1.34578125 54.98598145 2.71875 54.97167969 C6.08148339 54.92738749 9.44299347 54.86565338 12.80517578 54.79248047 C14.25395216 54.76443964 15.70287672 54.74314189 17.15185547 54.72900391 C28.6782306 54.70033641 28.6782306 54.70033641 39 50 C44.23875446 44.17188567 44.72067002 36.80787624 44.41796875 29.28125 C43.62353876 23.04460334 41.85082777 19.47310781 36.9375 15.5625 C32.40879328 13.15361345 29.0108093 12.82888027 23.92578125 12.68359375 C23.2419487 12.66281265 22.55811615 12.64203156 21.8535614 12.62062073 C19.6733079 12.55533846 17.49293595 12.49633983 15.3125 12.4375 C13.83267014 12.39429447 12.35285217 12.35067953 10.87304688 12.30664062 C7.24882378 12.19967917 3.62446811 12.09835177 0 12 C0 8.04 0 4.08 0 0 Z " fill="#090808" transform="translate(651,435)"/>
<path d="M0 0 C1.58206057 0.00667536 3.16410534 0.0186375 4.74609375 0.03515625 C5.55240234 0.03966797 6.35871094 0.04417969 7.18945312 0.04882812 C9.18753131 0.06065107 11.18557158 0.07858711 13.18359375 0.09765625 C17.09335374 9.35692263 20.8211925 18.68106984 24.49609375 28.03515625 C24.77850922 28.75333527 25.06092468 29.47151428 25.35189819 30.2114563 C28.92807903 39.30840816 32.49298451 48.40977291 35.99609375 57.53515625 C36.32714111 58.39165771 36.65818848 59.24815918 36.99926758 60.13061523 C39.18359375 65.86035825 39.18359375 65.86035825 39.18359375 68.09765625 C34.23359375 68.09765625 29.28359375 68.09765625 24.18359375 68.09765625 C23.64992188 66.60621094 23.11625 65.11476563 22.56640625 63.578125 C18.32024304 51.73356446 14.03491732 39.90397258 9.68359375 28.09765625 C9.25062988 26.9171167 8.81766602 25.73657715 8.37158203 24.52026367 C7.9692334 23.43205322 7.56688477 22.34384277 7.15234375 21.22265625 C6.79591797 20.25585938 6.43949219 19.2890625 6.07226562 18.29296875 C5.37426606 16.15829005 5.37426606 16.15829005 4.18359375 15.09765625 C2.54217678 19.68142509 0.90674822 24.26727468 -0.72363281 28.85498047 C-1.2767581 30.40892284 -1.83139613 31.96232775 -2.38769531 33.51513672 C-5.54645779 42.33572435 -8.52213089 51.12554149 -10.96582031 60.17529297 C-11.81640625 63.09765625 -11.81640625 63.09765625 -13.81640625 68.09765625 C-18.76640625 68.09765625 -23.71640625 68.09765625 -28.81640625 68.09765625 C-28.11559238 65.99521464 -27.41428324 63.89293742 -26.71118164 61.79125977 C-26.15853036 60.12757583 -25.61212688 58.46178367 -25.07592773 56.79272461 C-21.77313214 46.62464416 -18.01621816 36.61883624 -14.30639648 26.59399414 C-13.11811846 23.38098694 -11.93490108 20.16614474 -10.75195312 16.95117188 C-9.99900104 14.91264843 -9.24575671 12.8742329 -8.4921875 10.8359375 C-8.13804276 9.87254959 -7.78389801 8.90916168 -7.41902161 7.9165802 C-7.09165512 7.03443344 -6.76428864 6.15228668 -6.42700195 5.2434082 C-6.13928421 4.46463821 -5.85156647 3.68586823 -5.55513 2.88349915 C-4.18820563 -0.42100023 -4.0128551 0.10268309 0 0 Z " fill="#090909" transform="translate(551.81640625,434.90234375)"/>
<path d="M0 0 C5.06782482 -0.14976523 10.13432625 -0.25787149 15.20385742 -0.32958984 C16.92348707 -0.35952444 18.64296721 -0.40028857 20.36206055 -0.45263672 C30.78259188 -0.76170744 39.46583671 -0.90530674 48 6 C55.66132565 13.94969117 57.57054809 22.49847176 57.5 33.25 C57.49355469 34.26835937 57.48710937 35.28671875 57.48046875 36.3359375 C57.24084951 46.19816076 55.63085254 53.91438156 48.25 61 C46.453125 62.5 46.453125 62.5 44 64 C43.46576416 64.3515918 42.93152832 64.70318359 42.38110352 65.06542969 C34.38834443 69.51709297 25.28667339 68.43300895 16.4375 68.25 C14.74416174 68.22990488 13.05080047 68.21165943 11.35742188 68.1953125 C7.23770628 68.15155338 3.11911049 68.0826939 -1 68 C-1 63.71 -1 59.42 -1 55 C1.98353516 54.94392578 1.98353516 54.94392578 5.02734375 54.88671875 C6.98350481 54.83798876 8.93966465 54.78915503 10.89575195 54.73754883 C12.89708611 54.68849065 14.89875306 54.65366863 16.90039062 54.61914062 C29.24128257 54.47662545 29.24128257 54.47662545 39.5 48.5 C42.50906003 43.48489994 42.2516417 38.8635511 42.3125 33.1875 C42.34150391 32.29740234 42.37050781 31.40730469 42.40039062 30.49023438 C42.45477433 24.84687875 42.05724627 21.27448465 38 17 C31.32113214 11.55759735 22.66124899 12.3324175 14.5 12.25 C13.09110984 12.22179626 11.68225319 12.19186277 10.2734375 12.16015625 C6.84890123 12.08978907 3.42503295 12.03692415 0 12 C0 8.04 0 4.08 0 0 Z " fill="#090909" transform="translate(275,435)"/>
<path d="M0 0 C5.94 0 11.88 0 18 0 C18.63164063 1.67578125 19.26328125 3.3515625 19.9140625 5.078125 C20.81732279 7.4688966 21.72097536 9.85951753 22.625 12.25 C22.86288239 12.87960632 23.10076477 13.50921265 23.34585571 14.15789795 C26.46352075 22.40362326 29.62669848 30.62997761 32.84765625 38.8359375 C33.16756531 39.65231689 33.48747437 40.46869629 33.81707764 41.30981445 C35.39803921 45.34347436 36.98425693 49.37493615 38.57861328 53.40332031 C39.1606979 54.88598287 39.74257656 56.36872632 40.32421875 57.8515625 C40.73124779 58.87157852 40.73124779 58.87157852 41.14649963 59.91220093 C42.26343953 62.77292702 43 64.89781156 43 68 C38.38 68 33.76 68 29 68 C22.03450377 50.44694949 15.54840515 32.71156727 9 15 C4.8013662 23.73113486 1.94264558 32.87250572 -1.0625 42.0625 C-1.85924845 44.48807035 -2.6573501 46.91318346 -3.45713806 49.3377533 C-3.95113165 50.83641418 -4.44326373 52.33569054 -4.93312073 53.83570862 C-6.50113854 58.60713715 -8.21058314 63.30693893 -10 68 C-14.62 68 -19.24 68 -24 68 C-22.10601222 60.06328928 -19.99694969 52.68565319 -16.8046875 45.1953125 C-14.46880759 39.69830169 -12.43318038 34.30854862 -10.8125 28.5625 C-9.55052039 24.58241048 -7.84446804 20.80272433 -6.19921875 16.96875 C-4.76654133 13.42205671 -3.67777302 9.84456326 -2.67578125 6.15625 C-2 4 -2 4 0 0 Z " fill="#0A0A0A" transform="translate(931,435)"/>
<path d="M0 0 C5.94 0 11.88 0 18 0 C21.07617188 7.99804688 24.15234375 15.99609375 27.22851562 23.99414062 C27.5604744 24.85720322 27.89243317 25.72026581 28.23445129 26.60948181 C28.89752751 28.33354092 29.56052213 30.05763141 30.22343445 31.78175354 C31.64878665 35.48861225 33.07471488 39.19523698 34.50512695 42.90014648 C36.65735082 48.47904836 38.79113438 54.05976142 40.8125 59.6875 C41.23144531 60.84636719 41.65039062 62.00523437 42.08203125 63.19921875 C43 66 43 66 43 68 C38.38 68 33.76 68 29 68 C25.35254662 59.4480245 22.07621142 50.83450912 19 42.0625 C15.80524405 32.98240459 12.50313252 23.96559687 9 15 C6.30956325 21.55942501 3.84398617 28.15651846 1.58203125 34.875 C1.27931808 35.76614502 0.97660492 36.65729004 0.66471863 37.57543945 C-0.28856772 40.38277045 -1.23829675 43.19128609 -2.1875 46 C-3.14787058 48.83711979 -4.1090267 51.67396675 -5.07185364 54.51025391 C-5.66769851 56.26591847 -6.26206035 58.02208719 -6.8547821 59.77880859 C-7.25573845 60.96144287 -7.25573845 60.96144287 -7.66479492 62.16796875 C-7.89921799 62.86172607 -8.13364105 63.5554834 -8.37516785 64.27026367 C-9 66 -9 66 -10 68 C-14.62 68 -19.24 68 -24 68 C-22.66163588 61.23268196 -20.67910581 55.0486452 -18.1875 48.625 C-17.38975207 46.53418702 -16.59293957 44.44301698 -15.796875 42.3515625 C-15.35794922 41.20204102 -14.91902344 40.05251953 -14.46679688 38.86816406 C-11.87822751 32.06238748 -9.3589528 25.23047146 -6.82827759 18.40301514 C-5.68460102 15.31776453 -4.53948569 12.23304886 -3.39433289 9.14834595 C-2.26252763 6.09903125 -1.13132052 3.04949457 0 0 Z " fill="#090909" transform="translate(799,435)"/>
<path d="M0 0 C4.62 0 9.24 0 14 0 C14 22.77 14 45.54 14 69 C9.38 69 4.76 69 0 69 C-2.9511266 65.86442799 -4.77728714 63.55726867 -6.83886719 59.93896484 C-9.20127079 55.99400912 -11.96157325 52.30744601 -14.625 48.5625 C-15.84287913 46.82152372 -17.05899736 45.07931443 -18.2734375 43.3359375 C-20.72998985 39.81535147 -23.19344912 36.29979485 -25.6640625 32.7890625 C-31.12577215 25.02407103 -36.56933698 17.24776396 -41.875 9.375 C-42.29813477 8.75326904 -42.72126953 8.13153809 -43.15722656 7.4909668 C-46 3.23587932 -46 3.23587932 -46 1 C-43.98537665 0.75460979 -41.96191331 0.58128584 -39.9375 0.4375 C-38.24947266 0.28087891 -38.24947266 0.28087891 -36.52734375 0.12109375 C-31.00950744 1.49596991 -29.05452783 5.42852316 -26 10 C-25.47994385 10.7417749 -24.9598877 11.4835498 -24.42407227 12.24780273 C-22.86275938 14.48298474 -21.3342268 16.73771238 -19.8125 19 C-13.67402943 28.09823511 -7.33293244 37.02834571 -1 46 C-0.67 30.82 -0.34 15.64 0 0 Z " fill="#0D0C0C" transform="translate(1086,434)"/>
<path d="M0 0 C4.95 0 9.9 0 15 0 C15.76183594 1.3303125 16.52367187 2.660625 17.30859375 4.03125 C17.80456055 4.89540527 18.30052734 5.75956055 18.81152344 6.64990234 C19.90824764 8.57229849 20.99595734 10.49986176 22.07519531 12.43212891 C24.48246631 16.72332025 26.84877296 20.924766 29.80078125 24.8671875 C38.96494261 37.63825517 36.76281136 53.00746076 36 68 C31.71 68 27.42 68 23 68 C23.04382813 66.18757813 23.08765625 64.37515625 23.1328125 62.5078125 C23.22728613 47.41798581 22.13395657 36.77157376 13.53369141 24.30566406 C10.56046613 19.835887 8.00914498 15.11197448 5.375 10.4375 C3.89850883 7.87635828 2.42178557 5.31535841 0.94287109 2.75561523 C0 1 0 1 0 0 Z " fill="#080808" transform="translate(402,435)"/>
<path d="M0 0 C4.95 0 9.9 0 15 0 C15.4532666 1.27939453 15.9065332 2.55878906 16.37353516 3.87695312 C18.08300523 8.70087919 19.79440907 13.52411745 21.50634766 18.34716797 C22.24188744 20.42022795 22.97692802 22.49346513 23.71142578 24.56689453 C24.77760232 27.57633418 25.84544987 30.58517458 26.9140625 33.59375 C27.26253235 34.57633789 27.6110022 35.55892578 27.97003174 36.57128906 C29.54570407 40.99602213 31.14080845 45.40908533 32.82714844 49.79296875 C33.10505219 50.51665649 33.38295593 51.24034424 33.66928101 51.98596191 C34.40021863 53.87437946 35.14177237 55.75867871 35.88427734 57.64257812 C37.03537226 61.10644188 37.59666991 64.37868438 38 68 C33.71 68 29.42 68 25 68 C20.9501369 57.49224709 16.96739108 46.98488387 13.25 36.35546875 C10.69376746 29.07286877 8.01148721 21.89603574 4.9375 14.8125 C3.95430933 12.54340602 2.97479569 10.27271308 2 8 C1.60941406 7.09636719 1.21882813 6.19273437 0.81640625 5.26171875 C0 3 0 3 0 0 Z " fill="#0D0C0C" transform="translate(52,435)"/>
<path d="M0 0 C4.95 0 9.9 0 15 0 C10.68074294 11.55401264 6.31462125 23.0892741 1.91210938 34.61181641 C1.10151924 36.73419132 0.29270533 38.85723251 -0.515625 40.98046875 C-2.57462559 46.36984077 -4.66808284 51.72250328 -7 57 C-7.66 57 -8.32 57 -9 57 C-9.87430519 54.81877494 -10.72408501 52.63250158 -11.5625 50.4375 C-12.27599609 48.61025391 -12.27599609 48.61025391 -13.00390625 46.74609375 C-14.671349 40.47520121 -12.97360597 35.37978711 -10.9375 29.375 C-10.62292847 28.44675415 -10.62292847 28.44675415 -10.30200195 27.49975586 C-7.11501893 18.24436175 -3.53336864 9.12713836 0 0 Z " fill="#080807" transform="translate(103,435)"/>
<path d="M0 0 C4.29 0 8.58 0 13 0 C13 16.17 13 32.34 13 49 C8.71 49 4.42 49 0 49 C0 32.83 0 16.66 0 0 Z " fill="#050505" transform="translate(190,454)"/>
<path d="M0 0 C7.59292135 7.59292135 12.57134226 12.63855579 12.68359375 23.6328125 C12.66287075 26.80023424 12.55610898 29.95996266 12.4375 33.125 C12.40232203 34.76555801 12.37039449 36.40618909 12.34179688 38.046875 C12.26532197 42.03308115 12.14491191 46.01571883 12 50 C8.04 50 4.08 50 0 50 C0 33.5 0 17 0 0 Z " fill="#070606" transform="translate(1040,453)"/>
<path d="M0 0 C31.35 0 62.7 0 95 0 C95 1.65 95 3.3 95 5 C63.65 5 32.3 5 0 5 C0 3.35 0 1.7 0 0 Z " fill="#131313" transform="translate(1009,568)"/>
<path d="M0 0 C27.72 0 55.44 0 84 0 C84 1.65 84 3.3 84 5 C56.28 5 28.56 5 0 5 C0 3.35 0 1.7 0 0 Z " fill="#121212" transform="translate(45,568)"/>
<path d="M0 0 C3.03044846 0.17606352 5.96138196 0.57569809 8.93408203 1.18212891 C6.31618342 6.62699442 3.12651654 11.76646489 0.05712891 16.96459961 C-1.06671317 18.87097782 -2.18348156 20.78139137 -3.30029297 22.69189453 C-4.01339949 23.90113562 -4.72692657 25.11012882 -5.44091797 26.31884766 C-6.08802734 27.4193042 -6.73513672 28.51976074 -7.40185547 29.65356445 C-9.06591797 32.18212891 -9.06591797 32.18212891 -11.06591797 33.18212891 C-12.10786932 31.82306192 -13.1237492 30.44398375 -14.12841797 29.05712891 C-14.69689453 28.29142578 -15.26537109 27.52572266 -15.85107422 26.73681641 C-17.48680805 23.29704173 -17.12419733 21.83560786 -16.06591797 18.18212891 C-9.25915871 0.34358022 -9.25915871 0.34358022 0 0 Z " fill="#101010" transform="translate(453.06591796875,432.81787109375)"/>
<path d="M0 0 C0.7734375 0.12761719 1.546875 0.25523437 2.34375 0.38671875 C4.92970987 0.78754253 7.21391606 1.07421875 9.84375 1.07421875 C10.83375 1.07421875 11.82375 1.07421875 12.84375 1.07421875 C12.90433594 2.13382813 12.96492188 3.1934375 13.02734375 4.28515625 C13.11175127 5.67319096 13.19639917 7.06121107 13.28125 8.44921875 C13.32056641 9.14789062 13.35988281 9.8465625 13.40039062 10.56640625 C13.58655134 14.44782367 13.58655134 14.44782367 14.84375 18.07421875 C16.49375 18.07421875 18.14375 18.07421875 19.84375 18.07421875 C21.429619 14.90248075 21.22241445 11.43908053 21.40625 7.94921875 C21.44943359 7.19511719 21.49261719 6.44101562 21.53710938 5.6640625 C21.6432332 3.80099987 21.74400001 1.93763351 21.84375 0.07421875 C22.83375 0.07421875 23.82375 0.07421875 24.84375 0.07421875 C24.95187003 2.82527297 25.03109945 5.57206962 25.09375 8.32421875 C25.14402344 9.49017578 25.14402344 9.49017578 25.1953125 10.6796875 C25.29393716 16.44923007 25.29393716 16.44923007 23.04296875 19.57421875 C20.84375 21.07421875 20.84375 21.07421875 17.40625 21.82421875 C13.84375 21.07421875 13.84375 21.07421875 12.28125 19.27734375 C11.01679583 17.25134332 9.88447551 15.22281335 8.84375 13.07421875 C8.575625 13.83734375 8.3075 14.60046875 8.03125 15.38671875 C6.20040914 19.53020069 6.20040914 19.53020069 3.84375 21.07421875 C-0.52331908 21.46413563 -2.46138897 21.53745944 -6.15625 19.07421875 C-6.15625 18.41421875 -6.15625 17.75421875 -6.15625 17.07421875 C-3.18625 17.40421875 -0.21625 17.73421875 2.84375 18.07421875 C3.17375 16.42421875 3.50375 14.77421875 3.84375 13.07421875 C2.915625 12.80609375 1.9875 12.53796875 1.03125 12.26171875 C-3.48668478 10.57856658 -3.48668478 10.57856658 -5.15625 8.07421875 C-5.53125 5.57421875 -5.53125 5.57421875 -5.15625 3.07421875 C-3.51531497 0.86050452 -2.80167519 0.09643447 0 0 Z " fill="#E2E2E2" transform="translate(194.15625,558.92578125)"/>
<path d="M0 0 C5.42158488 1.6757626 5.42158488 1.6757626 7.4375 5.0625 C8.06398671 9.74691199 8.4964723 14.21007032 6.09765625 18.40625 C4.4375 20.0625 4.4375 20.0625 1.4375 20.0625 C1.4375 21.0525 1.4375 22.0425 1.4375 23.0625 C3.4175 23.3925 5.3975 23.7225 7.4375 24.0625 C7.4375 24.7225 7.4375 25.3825 7.4375 26.0625 C4.0625 25.8125 4.0625 25.8125 0.4375 25.0625 C-0.75 23.0625 -0.75 23.0625 -1.5625 21.0625 C-2.89326989 20.71907551 -4.22681979 20.38630126 -5.5625 20.0625 C-8.43972403 17.0164413 -9.01650692 14.77012624 -9.0625 10.625 C-8.94035407 6.65791257 -8.68512532 5.25572777 -6.5 1.8125 C-3.5625 0.0625 -3.5625 0.0625 0 0 Z " fill="#323233" transform="translate(466.5625,558.9375)"/>
<path d="M0 0 C3.73599911 0.60995904 5.37288497 1.88723111 8.0625 4.5 C9.78444097 7.94388193 9.44046284 11.72688824 9.0625 15.5 C6.98141892 20.04054054 6.98141892 20.04054054 4.0625 21.5 C-2.15420914 22.07562122 -2.15420914 22.07562122 -5.1328125 19.88671875 C-7.48341323 16.77802384 -7.4729619 14.86534698 -7.4375 11 C-7.45296875 9.31390625 -7.45296875 9.31390625 -7.46875 7.59375 C-6.66407583 2.90770628 -4.6870394 0.79779394 0 0 Z " fill="#EBEBEB" transform="translate(283.9375,558.5)"/>
<path d="M0 0 C3.4375 0.6875 3.4375 0.6875 5.875 2.4375 C8.22118772 7.31757045 8.43156662 12.37362915 7.4375 17.6875 C4.9418067 20.90931096 4.04406612 21.6008477 -0.0625 22.1875 C-4.05695751 21.61686321 -5.15386668 20.83725126 -7.5625 17.6875 C-9.31135295 14.1897941 -9.11864521 10.50380677 -8.5625 6.6875 C-6.71072848 2.59367328 -4.47514819 0.86362509 0 0 Z " fill="#2E2E2E" transform="translate(426.5625,558.3125)"/>
<path d="M0 0 C3.3 0 6.6 0 10 0 C10 0.66 10 1.32 10 2 C10.99 2.33 11.98 2.66 13 3 C13.36923077 8.41538462 13.36923077 8.41538462 11.5 11.375 C11.005 11.91125 10.51 12.4475 10 13 C10.495 13.94875 10.99 14.8975 11.5 15.875 C13 19 13 19 13 21 C12.01 21 11.02 21 10 21 C9.74605469 20.43410156 9.49210938 19.86820313 9.23046875 19.28515625 C8.88628906 18.55167969 8.54210937 17.81820312 8.1875 17.0625 C7.85105469 16.33160156 7.51460937 15.60070312 7.16796875 14.84765625 C6.06399866 12.66970511 6.06399866 12.66970511 3 12 C3 14.97 3 17.94 3 21 C2.01 21 1.02 21 0 21 C0 14.07 0 7.14 0 0 Z " fill="#282929" transform="translate(948,559)"/>
<path d="M0 0 C0.99 0 1.98 0 3 0 C3.13277344 0.63808594 3.26554688 1.27617188 3.40234375 1.93359375 C3.57894531 2.75988281 3.75554688 3.58617187 3.9375 4.4375 C4.11152344 5.26121094 4.28554688 6.08492187 4.46484375 6.93359375 C4.80752994 8.97661204 4.80752994 8.97661204 6 10 C6.99 6.7 7.98 3.4 9 0 C9.99 0 10.98 0 12 0 C12.99 4.29 13.98 8.58 15 13 C16.29925791 8.66914029 17.343621 4.48525648 18 0 C18.99 0 19.98 0 21 0 C20.51358785 6.84817102 19.64006048 13.33042073 18 20 C16.68 20 15.36 20 14 20 C13.01 15.71 12.02 11.42 11 7 C10.67 7 10.34 7 10 7 C8.515 13.435 8.515 13.435 7 20 C5.68 20 4.36 20 3 20 C-0.44419134 6.3667426 -0.44419134 6.3667426 0 0 Z " fill="#3D3D3D" transform="translate(889,560)"/>
<path d="M0 0 C8.3984375 -0.1953125 8.3984375 -0.1953125 11 0 C13 2 13 2 13.3125 4.875 C12.9736202 8.26379801 12.27183419 9.53884629 10 12 C10.66 12.94875 11.32 13.8975 12 14.875 C14 18 14 18 14 20 C12.1875 19.875 12.1875 19.875 10 19 C7 13.96428571 7 13.96428571 7 11 C5.68 11 4.36 11 3 11 C3 13.97 3 16.94 3 20 C2.01 20 1.02 20 0 20 C0 13.4 0 6.8 0 0 Z " fill="#3C3D3C" transform="translate(223,560)"/>
<path d="M0 0 C8 0 8 0 10.5 1.125 C12 3 12 3 12.4375 5.9375 C11.96903694 9.21674143 11.21663014 10.59865068 9 13 C9.66 13.94875 10.32 14.8975 11 15.875 C13 19 13 19 13 21 C11.1875 20.875 11.1875 20.875 9 20 C6 14.96428571 6 14.96428571 6 12 C4.68 12 3.36 12 2 12 C2 14.97 2 17.94 2 21 C1.34 21 0.68 21 0 21 C0 14.07 0 7.14 0 0 Z " fill="#272828" transform="translate(615,559)"/>
<path d="M0 0 C5.61 0 11.22 0 17 0 C17.99 2.97 18.98 5.94 20 9 C20.66 9 21.32 9 22 9 C22.268125 7.865625 22.53625 6.73125 22.8125 5.5625 C23.204375 4.386875 23.59625 3.21125 24 2 C24.99 1.67 25.98 1.34 27 1 C26.52269162 2.4589426 26.04308958 3.91713496 25.5625 5.375 C25.29566406 6.18710937 25.02882813 6.99921875 24.75390625 7.8359375 C24 10 24 10 23 12 C22.77532169 13.53668865 22.59203195 15.07968054 22.4375 16.625 C22.35371094 17.44226563 22.26992188 18.25953125 22.18359375 19.1015625 C22.09271484 20.04128906 22.09271484 20.04128906 22 21 C21.34 21 20.68 21 20 21 C19.97421875 20.443125 19.9484375 19.88625 19.921875 19.3125 C19.53126873 14.05707023 18.44348335 10.21538881 15.83984375 5.62890625 C15 4 15 4 15 2 C12.69 2.33 10.38 2.66 8 3 C8 8.94 8 14.88 8 21 C7.01 21 6.02 21 5 21 C5 15.06 5 9.12 5 3 C3.02 3 1.04 3 -1 3 C-0.67 2.01 -0.34 1.02 0 0 Z " fill="#424243" transform="translate(533,559)"/>
<path d="M0 0 C1.32 0.33 2.64 0.66 4 1 C5.78939376 4.54012777 6.78028962 8.21018561 8 12 C9.65 8.37 11.3 4.74 13 1 C13.99 1 14.98 1 16 1 C16 7.6 16 14.2 16 21 C15.34 21 14.68 21 14 21 C13.67 16.71 13.34 12.42 13 8 C11.68 11.3 10.36 14.6 9 18 C8.34 18 7.68 18 7 18 C6.01 15.36 5.02 12.72 4 10 C3.67 13.63 3.34 17.26 3 21 C2.01 21 1.02 21 0 21 C0 14.07 0 7.14 0 0 Z " fill="#343434" transform="translate(792,559)"/>
<path d="M0 0 C5.94 0 11.88 0 18 0 C19.32 2.64 20.64 5.28 22 8 C22.99 5.69 23.98 3.38 25 1 C25.99 1 26.98 1 28 1 C26.22073579 6.59197324 26.22073579 6.59197324 24.96875 8.90625 C23.88113008 11.25691241 23.60194217 13.17798869 23.375 15.75 C23.30023438 16.54921875 23.22546875 17.3484375 23.1484375 18.171875 C23.09945313 18.77515625 23.05046875 19.3784375 23 20 C22.34 20 21.68 20 21 20 C20.9175 18.845 20.835 17.69 20.75 16.5 C20.25744729 12.36843848 18.85855478 9.27044306 16.83984375 5.6640625 C16 4 16 4 16 2 C15.01 2.495 15.01 2.495 14 3 C12.02 3 10.04 3 8 3 C8 8.94 8 14.88 8 21 C7.34 21 6.68 21 6 21 C6 15.06 6 9.12 6 3 C4.02 3 2.04 3 0 3 C0 2.01 0 1.02 0 0 Z " fill="#323333" transform="translate(382,559)"/>
<path d="M0 0 C0.99 0 1.98 0 3 0 C3 6.93 3 13.86 3 21 C-1 20 -1 20 -2.921875 16.83984375 C-3.54562507 15.54589414 -4.15453666 14.24470815 -4.75 12.9375 C-5.06582031 12.27427734 -5.38164062 11.61105469 -5.70703125 10.92773438 C-6.48411278 9.29115358 -7.24375767 7.64631405 -8 6 C-8.33 10.95 -8.66 15.9 -9 21 C-9.66 21 -10.32 21 -11 21 C-11 14.4 -11 7.8 -11 1 C-9.68 1 -8.36 1 -7 1 C-5.02 4.96 -3.04 8.92 -1 13 C-0.67 8.71 -0.34 4.42 0 0 Z " fill="#3A3B3B" transform="translate(308,559)"/>
<path d="M0 0 C4 1 4 1 5.921875 4.16015625 C6.54562507 5.45410586 7.15453666 6.75529185 7.75 8.0625 C8.06582031 8.72572266 8.38164063 9.38894531 8.70703125 10.07226562 C9.48411278 11.70884642 10.24375767 13.35368595 11 15 C11.33 10.38 11.66 5.76 12 1 C12.66 1 13.32 1 14 1 C14 7.6 14 14.2 14 21 C13.01 21 12.02 21 11 21 C8.69 16.38 6.38 11.76 4 7 C3.67 11.62 3.34 16.24 3 21 C2.01 21 1.02 21 0 21 C0 14.07 0 7.14 0 0 Z " fill="#353535" transform="translate(857,559)"/>
<path d="M0 0 C4 1 4 1 5.921875 3.94140625 C6.54505873 5.1413664 7.15402029 6.34879884 7.75 7.5625 C8.06582031 8.17802734 8.38164063 8.79355469 8.70703125 9.42773438 C9.48361889 10.94561021 10.24345561 12.47203534 11 14 C11.33 9.71 11.66 5.42 12 1 C12.66 1 13.32 1 14 1 C14 7.6 14 14.2 14 21 C13.01 21 12.02 21 11 21 C8.69 16.38 6.38 11.76 4 7 C3.67 11.62 3.34 16.24 3 21 C2.01 21 1.02 21 0 21 C0 14.07 0 7.14 0 0 Z " fill="#343435" transform="translate(736,559)"/>
<path d="M0 0 C4 1 4 1 5.921875 4.16015625 C6.54562507 5.45410586 7.15453666 6.75529185 7.75 8.0625 C8.06582031 8.72572266 8.38164062 9.38894531 8.70703125 10.07226562 C9.48411278 11.70884642 10.24375767 13.35368595 11 15 C11.33 10.38 11.66 5.76 12 1 C12.66 1 13.32 1 14 1 C14 7.6 14 14.2 14 21 C13.01 21 12.02 21 11 21 C8.69 16.71 6.38 12.42 4 8 C3.67 12.29 3.34 16.58 3 21 C2.01 21 1.02 21 0 21 C0 14.07 0 7.14 0 0 Z " fill="#333333" transform="translate(170,559)"/>
<path d="M0 0 C4 1 4 1 5.921875 4.16015625 C6.54562507 5.45410586 7.15453666 6.75529185 7.75 8.0625 C8.06582031 8.72572266 8.38164063 9.38894531 8.70703125 10.07226562 C9.48411278 11.70884642 10.24375767 13.35368595 11 15 C11.33 10.38 11.66 5.76 12 1 C12.66 1 13.32 1 14 1 C14 7.6 14 14.2 14 21 C13.01 21 12.02 21 11 21 C8.69 16.71 6.38 12.42 4 8 C3.67 12.29 3.34 16.58 3 21 C2.01 21 1.02 21 0 21 C0 14.07 0 7.14 0 0 Z " fill="#2E2E2E" transform="translate(631,559)"/>
<path d="M0 0 C1.32 0 2.64 0 4 0 C5.00486895 2.95670218 6.00306024 5.91561577 7 8.875 C7.28617188 9.71675781 7.57234375 10.55851563 7.8671875 11.42578125 C8.13789062 12.23144531 8.40859375 13.03710938 8.6875 13.8671875 C9.06455078 14.98262939 9.06455078 14.98262939 9.44921875 16.12060547 C10 18 10 18 10 20 C9.01 20 8.02 20 7 20 C6.67 18.02 6.34 16.04 6 14 C3.36 14 0.72 14 -2 14 C-2.33 15.98 -2.66 17.96 -3 20 C-3.99 20 -4.98 20 -6 20 C-4.22089072 13.24947898 -2.29561809 6.59379663 0 0 Z " fill="#212121" transform="translate(724,560)"/>
<path d="M0 0 C0.99 0 1.98 0 3 0 C3 6.93 3 13.86 3 21 C-1 20 -1 20 -2.921875 16.83984375 C-3.54562507 15.54589414 -4.15453666 14.24470815 -4.75 12.9375 C-5.06582031 12.27427734 -5.38164062 11.61105469 -5.70703125 10.92773438 C-6.48411278 9.29115358 -7.24375767 7.64631405 -8 6 C-8.33 10.95 -8.66 15.9 -9 21 C-9.66 21 -10.32 21 -11 21 C-11 14.4 -11 7.8 -11 1 C-7 2 -7 2 -5.296875 4.50390625 C-3.86458333 7.3359375 -2.43229167 10.16796875 -1 13 C-0.67 8.71 -0.34 4.42 0 0 Z " fill="#434344" transform="translate(350,559)"/>
<path d="M0 0 C1.32 0 2.64 0 4 0 C5.00577013 2.76886123 6.00480147 5.53984104 7 8.3125 C7.28617188 9.09818359 7.57234375 9.88386719 7.8671875 10.69335938 C8.13789062 11.45068359 8.40859375 12.20800781 8.6875 12.98828125 C9.06455078 14.03302612 9.06455078 14.03302612 9.44921875 15.09887695 C10 17 10 17 10 20 C9.01 20 8.02 20 7 20 C6.67 18.02 6.34 16.04 6 14 C3.36 14 0.72 14 -2 14 C-2.33 15.98 -2.66 17.96 -3 20 C-3.99 20 -4.98 20 -6 20 C-4.22089072 13.24947898 -2.29561809 6.59379663 0 0 Z " fill="#505051" transform="translate(602,560)"/>
<path d="M0 0 C0.99 0 1.98 0 3 0 C3 6.93 3 13.86 3 21 C-1 20 -1 20 -2.921875 16.83984375 C-3.54562507 15.54589414 -4.15453666 14.24470815 -4.75 12.9375 C-5.06582031 12.27427734 -5.38164063 11.61105469 -5.70703125 10.92773438 C-6.48411278 9.29115358 -7.24375767 7.64631405 -8 6 C-8.33 10.95 -8.66 15.9 -9 21 C-9.66 21 -10.32 21 -11 21 C-11 14.4 -11 7.8 -11 1 C-7 2 -7 2 -5.296875 4.50390625 C-3.86458333 7.3359375 -2.43229167 10.16796875 -1 13 C-0.67 8.71 -0.34 4.42 0 0 Z " fill="#3C3C3C" transform="translate(669,559)"/>
<path d="M0 0 C1.32 0 2.64 0 4 0 C5.00486895 2.95670218 6.00306024 5.91561577 7 8.875 C7.28617188 9.71675781 7.57234375 10.55851563 7.8671875 11.42578125 C8.13789062 12.23144531 8.40859375 13.03710938 8.6875 13.8671875 C9.06455078 14.98262939 9.06455078 14.98262939 9.44921875 16.12060547 C10 18 10 18 10 20 C9.01 20 8.02 20 7 20 C6.67 18.02 6.34 16.04 6 14 C3.36 14 0.72 14 -2 14 C-2.33 15.98 -2.66 17.96 -3 20 C-3.99 20 -4.98 20 -6 20 C-4.38808348 13.14078075 -2.64031672 6.53792711 0 0 Z " fill="#464647" transform="translate(845,560)"/>
<path d="M0 0 C3 0.25 3 0.25 5 2.25 C5.30078125 4.4921875 5.30078125 4.4921875 5.3125 7.125 C5.32925781 7.98867188 5.34601563 8.85234375 5.36328125 9.7421875 C4.93757021 12.68096692 3.94053466 14.04833799 2 16.25 C-2.75 15.5 -2.75 15.5 -5 13.25 C-5.265625 10.71875 -5.265625 10.71875 -5.25 7.75 C-5.25515625 6.7703125 -5.2603125 5.790625 -5.265625 4.78125 C-4.86151555 0.93032467 -3.79224855 0.31602071 0 0 Z " fill="#F3F3F3" transform="translate(466,561.75)"/>
<path d="M0 0 C3 0.25 3 0.25 5 2.25 C5.30078125 4.74609375 5.30078125 4.74609375 5.3125 7.6875 C5.33763672 9.13962891 5.33763672 9.13962891 5.36328125 10.62109375 C5 13.25 5 13.25 3.640625 15.10546875 C2 16.25 2 16.25 -0.5625 16.125 C-3 15.25 -3 15.25 -5 12.25 C-5.265625 9.83984375 -5.265625 9.83984375 -5.25 7.1875 C-5.25515625 6.30964844 -5.2603125 5.43179688 -5.265625 4.52734375 C-4.83383823 0.82540714 -3.60022647 0.30001887 0 0 Z " fill="#F3F2F3" transform="translate(426,561.75)"/>
<path d="M0 0 C1.32 0 2.64 0 4 0 C5.00577013 2.76886123 6.00480147 5.53984104 7 8.3125 C7.28617187 9.09818359 7.57234375 9.88386719 7.8671875 10.69335938 C8.13789063 11.45068359 8.40859375 12.20800781 8.6875 12.98828125 C9.06455078 14.03302612 9.06455078 14.03302612 9.44921875 15.09887695 C10 17 10 17 10 20 C9.01 20 8.02 20 7 20 C6.67 18.02 6.34 16.04 6 14 C3.36 14 0.72 14 -2 14 C-2.33 15.98 -2.66 17.96 -3 20 C-3.66 20 -4.32 20 -5 20 C-4.35346673 13.04976736 -2.13972752 6.61822697 0 0 Z " fill="#474848" transform="translate(500,560)"/>
<path d="M0 0 C3.73599911 0.60995904 5.37288497 1.88723111 8.0625 4.5 C9.78444097 7.94388193 9.44046284 11.72688824 9.0625 15.5 C6.98141892 20.04054054 6.98141892 20.04054054 4.0625 21.5 C-2.15420914 22.07562122 -2.15420914 22.07562122 -5.1328125 19.88671875 C-7.48341323 16.77802384 -7.4729619 14.86534698 -7.4375 11 C-7.45296875 9.31390625 -7.45296875 9.31390625 -7.46875 7.59375 C-6.66407583 2.90770628 -4.6870394 0.79779394 0 0 Z M-3.8125 4.5 C-5.62289788 7.71848512 -5.44171822 10.9497512 -4.9375 14.5 C-3.94554027 17.51981101 -3.94554027 17.51981101 -1.9375 19.5 C0.5625 20.16666667 0.5625 20.16666667 3.0625 19.5 C4.80386199 18.363844 4.80386199 18.363844 6.0625 16.5 C6.5003749 13.82893975 6.5003749 13.82893975 6.375 10.9375 C6.37113281 9.96683594 6.36726563 8.99617187 6.36328125 7.99609375 C6.30239886 5.32827665 6.30239886 5.32827665 4.0625 3.5 C1.02260077 3.17660646 -1.08118353 3.04329788 -3.8125 4.5 Z " fill="#1C1C1C" transform="translate(283.9375,558.5)"/>
<path d="M0 0 C4.29 0 8.58 0 13 0 C13 3.3 13 6.6 13 10 C8.71 10 4.42 10 0 10 C0 6.7 0 3.4 0 0 Z " fill="#060606" transform="translate(190,435)"/>
<path d="M0 0 C0.33 0.99 0.66 1.98 1 3 C-1.05078125 3.22786458 -3.1015625 3.45572917 -5.15234375 3.68359375 C-7.01140229 3.81886614 -7.01140229 3.81886614 -8 5 C-8.12487758 6.80927281 -8.17570846 8.62396107 -8.1875 10.4375 C-8.20167969 11.42621094 -8.21585938 12.41492188 -8.23046875 13.43359375 C-8.26150753 16.16584415 -8.26150753 16.16584415 -6 18 C-3.41645782 18.16687448 -3.41645782 18.16687448 -1 18 C-0.67 16.02 -0.34 14.04 0 12 C-1.32 12 -2.64 12 -4 12 C-4 11.34 -4 10.68 -4 10 C-1.69 10 0.62 10 3 10 C3.08096803 11.45742463 3.13917774 12.91612807 3.1875 14.375 C3.22230469 15.18710937 3.25710938 15.99921875 3.29296875 16.8359375 C3.19628906 17.55007813 3.09960938 18.26421875 3 19 C-0.71013399 21.47342266 -2.61060262 21.38503486 -7 21 C-10.1850357 19.23984869 -10.83296972 18.50109084 -12 15 C-12.60226825 9.92373901 -12.80808799 6.22437575 -9.9375 1.875 C-6.35870823 -0.40933517 -4.16952449 -0.40877691 0 0 Z " fill="#313132" transform="translate(688,559)"/>
<path d="M0 0 C3.63 0 7.26 0 11 0 C11.33 0.99 11.66 1.98 12 3 C9.03 3 6.06 3 3 3 C3 4.98 3 6.96 3 9 C5.31 9 7.62 9 10 9 C10 9.66 10 10.32 10 11 C7.69 11 5.38 11 3 11 C3 13.64 3 16.28 3 19 C5.97 19 8.94 19 12 19 C12 19.66 12 20.32 12 21 C8.04 21 4.08 21 0 21 C0 14.07 0 7.14 0 0 Z " fill="#343434" transform="translate(583,559)"/>
<path d="M0 0 C3.63 0 7.26 0 11 0 C11.33 0.99 11.66 1.98 12 3 C9.03 3 6.06 3 3 3 C3 4.98 3 6.96 3 9 C5.31 9 7.62 9 10 9 C10 9.66 10 10.32 10 11 C7.69 11 5.38 11 3 11 C3 13.64 3 16.28 3 19 C5.97 19 8.94 19 12 19 C12 19.66 12 20.32 12 21 C8.04 21 4.08 21 0 21 C0 14.07 0 7.14 0 0 Z " fill="#333333" transform="translate(240,559)"/>
<path d="M0 0 C0.66 0 1.32 0 2 0 C2 2.97 2 5.94 2 9 C4.97 9 7.94 9 11 9 C11 6.36 11 3.72 11 1 C11.99 1 12.98 1 14 1 C14 7.6 14 14.2 14 21 C13.01 21 12.02 21 11 21 C11 17.7 11 14.4 11 11 C8.03 11 5.06 11 2 11 C2 14.3 2 17.6 2 21 C1.34 21 0.68 21 0 21 C0 14.07 0 7.14 0 0 Z " fill="#303030" transform="translate(914,559)"/>
<path d="M0 0 C3.63 0 7.26 0 11 0 C11 0.99 11 1.98 11 3 C8.36 3 5.72 3 3 3 C3 4.98 3 6.96 3 9 C5.31 9 7.62 9 10 9 C10 9.66 10 10.32 10 11 C7.69 11 5.38 11 3 11 C3 13.64 3 16.28 3 19 C5.97 19 8.94 19 12 19 C12 19.66 12 20.32 12 21 C8.04 21 4.08 21 0 21 C0 14.07 0 7.14 0 0 Z " fill="#303030" transform="translate(813,559)"/>
<path d="M0 0 C0.99 0 1.98 0 3 0 C3.06058594 1.13179687 3.12117188 2.26359375 3.18359375 3.4296875 C3.26799917 4.91147145 3.35264717 6.3932416 3.4375 7.875 C3.47681641 8.62136719 3.51613281 9.36773438 3.55664062 10.13671875 C3.71573624 14.19986864 3.71573624 14.19986864 5 18 C8.29075996 17.62095792 8.29075996 17.62095792 11 16 C11.23678716 13.30764224 11.42198025 10.63501844 11.5625 7.9375 C11.60568359 7.17888672 11.64886719 6.42027344 11.69335938 5.63867188 C11.79973633 3.75934562 11.90039934 1.87969756 12 0 C12.66 0 13.32 0 14 0 C14.10812003 2.75105422 14.18734945 5.49785087 14.25 8.25 C14.30027344 9.41595703 14.30027344 9.41595703 14.3515625 10.60546875 C14.45027902 16.38038528 14.45027902 16.38038528 12.171875 19.515625 C9.209116 21.54053223 7.51696851 21.58616142 4 21 C1.828125 19.515625 1.828125 19.515625 0 17 C-0.48587453 14.06686789 -0.3777438 11.21267355 -0.25 8.25 C-0.23195313 7.45722656 -0.21390625 6.66445313 -0.1953125 5.84765625 C-0.14833082 3.89791652 -0.07659044 1.94880122 0 0 Z " fill="#303030" transform="translate(478,559)"/>
<path d="M0 0 C3.63 0 7.26 0 11 0 C11 0.66 11 1.32 11 2 C8.36 2 5.72 2 3 2 C3 3.98 3 5.96 3 8 C5.31 8 7.62 8 10 8 C10 8.99 10 9.98 10 11 C7.69 11 5.38 11 3 11 C3 13.31 3 15.62 3 18 C5.64 18 8.28 18 11 18 C11 18.66 11 19.32 11 20 C7.37 20 3.74 20 0 20 C0 13.4 0 6.8 0 0 Z " fill="#1E1E1E" transform="translate(965,560)"/>
<path d="M0 0 C0.99 0 1.98 0 3 0 C3.10812003 2.75105422 3.18734945 5.49785087 3.25 8.25 C3.30027344 9.41595703 3.30027344 9.41595703 3.3515625 10.60546875 C3.45007621 16.36852053 3.45007621 16.36852053 1.20703125 19.515625 C-2.0093176 21.67883308 -4.22047089 21.54974969 -8 21 C-10.84812792 18.46542745 -11.00309277 16.95892804 -11.29296875 13.109375 C-11.27314945 11.65595991 -11.23754845 10.20268833 -11.1875 8.75 C-11.17396484 8.00492188 -11.16042969 7.25984375 -11.14648438 6.4921875 C-11.11127204 4.66114584 -11.05746851 2.83047831 -11 1 C-10.34 1 -9.68 1 -9 1 C-8.93941406 2.05960938 -8.87882813 3.11921875 -8.81640625 4.2109375 C-8.73199873 5.59897221 -8.64735083 6.98699232 -8.5625 8.375 C-8.52318359 9.07367187 -8.48386719 9.77234375 -8.44335938 10.4921875 C-8.25719866 14.37360492 -8.25719866 14.37360492 -7 18 C-5.35 18 -3.7 18 -2 18 C-0.414131 14.828262 -0.62133555 11.36486178 -0.4375 7.875 C-0.39431641 7.12089844 -0.35113281 6.36679687 -0.30664062 5.58984375 C-0.2005168 3.72678112 -0.09974999 1.86341476 0 0 Z " fill="#161616" transform="translate(216,559)"/>
<path d="M0 0 C0.66 0 1.32 0 2 0 C2.06058594 1.05960938 2.12117188 2.11921875 2.18359375 3.2109375 C2.26800127 4.59897221 2.35264917 5.98699232 2.4375 7.375 C2.47681641 8.07367187 2.51613281 8.77234375 2.55664062 9.4921875 C2.74280134 13.37360492 2.74280134 13.37360492 4 17 C5.65 17 7.3 17 9 17 C10.52106634 13.95786733 10.37429338 10.71952428 10.5625 7.375 C10.60568359 6.66859375 10.64886719 5.9621875 10.69335938 5.234375 C10.79944751 3.48981463 10.90022889 1.74493303 11 0 C11.99 0 12.98 0 14 0 C14.0814222 2.22855574 14.13938079 4.45797655 14.1875 6.6875 C14.22230469 7.92886719 14.25710938 9.17023437 14.29296875 10.44921875 C13.95907002 14.49607131 12.88757052 17.11242948 10 20 C3.63658281 20.47136424 3.63658281 20.47136424 1.29174805 18.73510742 C-0.27805558 16.62650898 -0.35167549 15.59094662 -0.29296875 12.98828125 C-0.28330078 12.23095703 -0.27363281 11.47363281 -0.26367188 10.69335938 C-0.23853516 9.90767578 -0.21339844 9.12199219 -0.1875 8.3125 C-0.17396484 7.51521484 -0.16042969 6.71792969 -0.14648438 5.89648438 C-0.11117089 3.93070033 -0.05736447 1.96526418 0 0 Z " fill="#1B1B1B" transform="translate(358,560)"/>
<path d="M0 0 C0.33 0.99 0.66 1.98 1 3 C-1.64 3 -4.28 3 -7 3 C-7 3.99 -7 4.98 -7 6 C-4.03 7.65 -1.06 9.3 2 11 C2.35789474 16.36842105 2.35789474 16.36842105 0.9375 18.875 C-2.07482516 20.62409203 -4.59502627 20.30401551 -8 20 C-8.99 19.34 -9.98 18.68 -11 18 C-11 17.34 -11 16.68 -11 16 C-8.03 16.33 -5.06 16.66 -2 17 C-1.67 15.35 -1.34 13.7 -1 12 C-1.928125 11.731875 -2.85625 11.46375 -3.8125 11.1875 C-8.33043478 9.50434783 -8.33043478 9.50434783 -10 7 C-10.42674516 4.15503228 -10.36066991 2.63647631 -8.9375 0.125 C-5.88430685 -1.64782183 -3.33588292 -0.69235306 0 0 Z " fill="#202020" transform="translate(199,560)"/>
<path d="M0 0 C3.63 0 7.26 0 11 0 C11 0.66 11 1.32 11 2 C8.36 2 5.72 2 3 2 C3 3.98 3 5.96 3 8 C5.31 8 7.62 8 10 8 C10 8.66 10 9.32 10 10 C7.36 10 4.72 10 2 10 C2 12.64 2 15.28 2 18 C4.97 18 7.94 18 11 18 C11 18.66 11 19.32 11 20 C7.37 20 3.74 20 0 20 C0 13.4 0 6.8 0 0 Z " fill="#1E1E1E" transform="translate(155,560)"/>
<path d="M0 0 C0.99 0 1.98 0 3 0 C3.99 4.29 4.98 8.58 6 13 C7.29925791 8.66914029 8.343621 4.48525648 9 0 C9.99 0 10.98 0 12 0 C11.51358785 6.84817102 10.64006048 13.33042073 9 20 C7.68 20 6.36 20 5 20 C4.49595192 17.89679937 3.99689492 15.79240209 3.5 13.6875 C3.08234375 11.92986328 3.08234375 11.92986328 2.65625 10.13671875 C2 7 2 7 2 4 C1.34 4 0.68 4 0 4 C0 2.68 0 1.36 0 0 Z " fill="#151515" transform="translate(898,560)"/>
<path d="M0 0 C0.33 0.99 0.66 1.98 1 3 C-0.27875 2.95875 -1.5575 2.9175 -2.875 2.875 C-5.01871492 2.75787127 -5.01871492 2.75787127 -7 3 C-9.42026227 4.98827671 -9.42026227 4.98827671 -9.3125 8.875 C-9.24088781 12.45560962 -8.60208598 14.39791402 -6 17 C-2.535 16.505 -2.535 16.505 1 16 C1 16.99 1 17.98 1 19 C-2.09173752 20.54586876 -4.59429552 20.29359521 -8 20 C-11.02403381 17.78703032 -11.90366324 16.60760431 -12.49609375 12.87109375 C-12.47675781 11.73800781 -12.45742188 10.60492187 -12.4375 9.4375 C-12.43556641 7.73400391 -12.43556641 7.73400391 -12.43359375 5.99609375 C-12 3 -12 3 -10.66015625 1.16015625 C-6.93862415 -1.44053795 -4.23992091 -0.84798418 0 0 Z " fill="#212122" transform="translate(273,560)"/>
<path d="M0 0 C3.63 0 7.26 0 11 0 C11 0.66 11 1.32 11 2 C8.03 2 5.06 2 2 2 C2 3.98 2 5.96 2 8 C4.64 8 7.28 8 10 8 C10 8.66 10 9.32 10 10 C7.36 10 4.72 10 2 10 C2 12.64 2 15.28 2 18 C4.97 18 7.94 18 11 18 C11 18.66 11 19.32 11 20 C7.37 20 3.74 20 0 20 C0 13.4 0 6.8 0 0 Z " fill="#1A1A1A" transform="translate(933,560)"/>
<path d="M0 0 C4.95 0 9.9 0 15 0 C15 0.66 15 1.32 15 2 C13.02 2 11.04 2 9 2 C9 7.94 9 13.88 9 20 C8.01 20 7.02 20 6 20 C6 14.06 6 8.12 6 2 C4.02 2 2.04 2 0 2 C0 1.34 0 0.68 0 0 Z " fill="#303030" transform="translate(767,560)"/>
<path d="M0 0 C1.875 0.125 1.875 0.125 4 1 C5.125 4 5.125 4 6 7 C6.66 7.33 7.32 7.66 8 8 C8.66 5.36 9.32 2.72 10 0 C10.99 0 11.98 0 13 0 C12.50656445 2.56586486 11.81111772 4.33054399 10.5 6.625 C8.53494227 11.04637989 8.27449112 15.21060321 8 20 C7.01 20 6.02 20 5 20 C4.89042969 19.14277344 4.78085937 18.28554688 4.66796875 17.40234375 C3.79758338 11.12566222 2.89466069 5.6577459 0 0 Z " fill="#353535" transform="translate(874,560)"/>
<path d="M0 0 C0.99 0 1.98 0 3 0 C3 6.27 3 12.54 3 19 C5.64 19 8.28 19 11 19 C11 19.66 11 20.32 11 21 C7.37 21 3.74 21 0 21 C0 14.07 0 7.14 0 0 Z " fill="#292A29" transform="translate(569,559)"/>
<path d="M0 0 C0.66 0 1.32 0 2 0 C2 2.64 2 5.28 2 8 C4.31 8 6.62 8 9 8 C9.103125 8.7425 9.20625 9.485 9.3125 10.25 C10.04657893 13.1863157 11.14499677 14.66108288 13 17 C13 17.66 13 18.32 13 19 C11.1875 18.875 11.1875 18.875 9 18 C6 12.96428571 6 12.96428571 6 10 C4.68 10 3.36 10 2 10 C2 12.97 2 15.94 2 19 C1.34 19 0.68 19 0 19 C0 12.73 0 6.46 0 0 Z " fill="#171717" transform="translate(224,561)"/>
<path d="M0 0 C4.62 0 9.24 0 14 0 C14 0.99 14 1.98 14 3 C12.02 3 10.04 3 8 3 C8 8.94 8 14.88 8 21 C7.34 21 6.68 21 6 21 C6 15.06 6 9.12 6 3 C4.02 3 2.04 3 0 3 C0 2.01 0 1.02 0 0 Z " fill="#2C2C2C" transform="translate(314,559)"/>
<path d="M0 0 C0.99 0 1.98 0 3 0 C4.32 2.31 5.64 4.62 7 7 C8.32 4.69 9.64 2.38 11 0 C11.66 0 12.32 0 13 0 C12.52269162 1.4589426 12.04308958 2.91713496 11.5625 4.375 C11.29566406 5.18710937 11.02882813 5.99921875 10.75390625 6.8359375 C10 9 10 9 9 11 C8.77532169 12.53668865 8.59203195 14.07968054 8.4375 15.625 C8.35371094 16.44226563 8.26992188 17.25953125 8.18359375 18.1015625 C8.12300781 18.72804688 8.06242188 19.35453125 8 20 C7.34 20 6.68 20 6 20 C5.9071875 18.1128125 5.9071875 18.1128125 5.8125 16.1875 C5.18707939 10.23652816 2.6766353 5.28413243 0 0 Z " fill="#0F0F10" transform="translate(753,560)"/>
<path d="M0 0 C0.99 0.33 1.98 0.66 3 1 C4.1875 4.5625 4.1875 4.5625 5 8 C5.66 8 6.32 8 7 8 C7.4021875 6.2984375 7.4021875 6.2984375 7.8125 4.5625 C8.4003125 2.7990625 8.4003125 2.7990625 9 1 C9.99 0.67 10.98 0.34 12 0 C11.52269162 1.4589426 11.04308958 2.91713496 10.5625 4.375 C10.29566406 5.18710937 10.02882813 5.99921875 9.75390625 6.8359375 C9 9 9 9 8 11 C7.77532169 12.53668865 7.59203195 14.07968054 7.4375 15.625 C7.35371094 16.44226563 7.26992188 17.25953125 7.18359375 18.1015625 C7.12300781 18.72804688 7.06242188 19.35453125 7 20 C6.34 20 5.68 20 5 20 C4.97421875 19.443125 4.9484375 18.88625 4.921875 18.3125 C4.53283092 13.07808875 3.47002156 9.2755533 0.83984375 4.7265625 C0 3 0 3 0 0 Z " fill="#09090A" transform="translate(548,560)"/>
<path d="M0 0 C9.24 0 18.48 0 28 0 C27.67 0.99 27.34 1.98 27 3 C18.42 3 9.84 3 1 3 C0.67 2.01 0.34 1.02 0 0 Z " fill="#EFEFEF" transform="translate(655,487)"/>
<path d="M0 0 C0.99 0 1.98 0 3 0 C4.32 2.31 5.64 4.62 7 7 C7.99 4.69 8.98 2.38 10 0 C10.99 0 11.98 0 13 0 C11.22073579 5.59197324 11.22073579 5.59197324 9.96875 7.90625 C8.88113008 10.25691241 8.60194217 12.17798869 8.375 14.75 C8.30023438 15.54921875 8.22546875 16.3484375 8.1484375 17.171875 C8.09945313 17.77515625 8.05046875 18.3784375 8 19 C7.34 19 6.68 19 6 19 C5.938125 17.88625 5.87625 16.7725 5.8125 15.625 C5.25234311 10.88064089 3.30436596 7.17099066 1.05859375 3.00390625 C0 1 0 1 0 0 Z " fill="#060606" transform="translate(397,560)"/>
<path d="M0 0 C0.66 0 1.32 0 2 0 C2 6.6 2 13.2 2 20 C1.01 20 0.02 20 -1 20 C-2.00732399 18.06629769 -3.00563288 16.12789694 -4 14.1875 C-4.556875 13.10855469 -5.11375 12.02960937 -5.6875 10.91796875 C-7 8 -7 8 -7 5 C-6.34 5 -5.68 5 -5 5 C-3.68 7.97 -2.36 10.94 -1 14 C-0.67 9.38 -0.34 4.76 0 0 Z " fill="#131313" transform="translate(869,560)"/>
<path d="M0 0 C0.33 0 0.66 0 1 0 C1 2.31 1 4.62 1 7 C6.03478441 6.76586026 6.03478441 6.76586026 9.9375 3.9375 C10.288125 3.298125 10.63875 2.65875 11 2 C11.20086443 5.71599191 11.1519437 6.77208445 9 10 C9.495 10.94875 9.99 11.8975 10.5 12.875 C12 16 12 16 12 18 C11.01 18 10.02 18 9 18 C8.75765625 17.43410156 8.5153125 16.86820313 8.265625 16.28515625 C7.93046875 15.55167969 7.5953125 14.81820312 7.25 14.0625 C6.92515625 13.33160156 6.6003125 12.60070312 6.265625 11.84765625 C5.13830628 9.81193356 5.13830628 9.81193356 2.859375 9.24609375 C2.24578125 9.16488281 1.6321875 9.08367188 1 9 C1 11.64 1 14.28 1 17 C0.67 17 0.34 17 0 17 C0 11.39 0 5.78 0 0 Z " fill="#0B0B0B" transform="translate(949,562)"/>
<path d="M0 0 C9.24 0 18.48 0 28 0 C27.67 0.99 27.34 1.98 27 3 C18.42 3 9.84 3 1 3 C0.67 2.01 0.34 1.02 0 0 Z " fill="#EFEFEF" transform="translate(276,487)"/>
<path d="M0 0 C0.66 0.33 1.32 0.66 2 1 C2.10841951 2.91541138 2.18578079 4.83259773 2.25 6.75 C2.29640625 7.81734375 2.3428125 8.8846875 2.390625 9.984375 C2 13 2 13 0.20703125 15.3671875 C-2.94080557 17.69602961 -5.18269776 17.41643297 -9 17 C-9.99 16.34 -10.98 15.68 -12 15 C-12.1875 12.375 -12.1875 12.375 -12 10 C-11.443125 10.680625 -10.88625 11.36125 -10.3125 12.0625 C-8.16651144 14.30520596 -8.16651144 14.30520596 -5.375 13.875 C-2.85594875 13.13532087 -2.85594875 13.13532087 -1 11 C-0.53709779 8.33757179 -0.53709779 8.33757179 -0.375 5.375 C-0.30023438 4.37210938 -0.22546875 3.36921875 -0.1484375 2.3359375 C-0.09945313 1.56507813 -0.05046875 0.79421875 0 0 Z " fill="#1E1E1E" transform="translate(432,563)"/>
<path d="M0 0 C1.32 0 2.64 0 4 0 C4.33 2.64 4.66 5.28 5 8 C4.34 7.34 3.68 6.68 3 6 C3 5.01 3 4.02 3 3 C2.34 3 1.68 3 1 3 C1.061875 4.11375 1.061875 4.11375 1.125 5.25 C0.99601866 8.08758952 0.42948778 9.58773938 -1 12 C0.98 12 2.96 12 5 12 C5 12.33 5 12.66 5 13 C3.02 13.33 1.04 13.66 -1 14 C-1.66 15.98 -2.32 17.96 -3 20 C-3.66 20 -4.32 20 -5 20 C-4.35346673 13.04976736 -2.13972752 6.61822697 0 0 Z " fill="#151515" transform="translate(500,560)"/>
<path d="M0 0 C0.33 0.66 0.66 1.32 1 2 C2.98 2 4.96 2 7 2 C7 1.34 7 0.68 7 0 C7.99 0.33 8.98 0.66 10 1 C10.73046875 3.06640625 10.73046875 3.06640625 11.1875 5.5625 C11.34605469 6.38878906 11.50460937 7.21507812 11.66796875 8.06640625 C11.77753906 8.70449219 11.88710938 9.34257813 12 10 C11.01 10 10.02 10 9 10 C8.67 8.02 8.34 6.04 8 4 C5.36 4 2.72 4 0 4 C-0.33 5.98 -0.66 7.96 -1 10 C-1.99 10 -2.98 10 -4 10 C-3.52449439 8.51965236 -3.04448784 7.04074979 -2.5625 5.5625 C-2.29566406 4.73878906 -2.02882813 3.91507813 -1.75390625 3.06640625 C-1 1 -1 1 0 0 Z " fill="#1E1F1E" transform="translate(600,570)"/>
<path d="M0 0 C0.99 0 1.98 0 3 0 C3 6.93 3 13.86 3 21 C2.01 21 1.02 21 0 21 C0 14.07 0 7.14 0 0 Z " fill="#373838" transform="translate(331,559)"/>
<path d="M0 0 C0.99 0 1.98 0 3 0 C3 6.93 3 13.86 3 21 C2.01 21 1.02 21 0 21 C0 14.07 0 7.14 0 0 Z " fill="#3C3C3C" transform="translate(650,559)"/>
<path d="M0 0 C0.99 0 1.98 0 3 0 C3 6.93 3 13.86 3 21 C2.01 21 1.02 21 0 21 C0 14.07 0 7.14 0 0 Z " fill="#2B2B2B" transform="translate(376,559)"/>
<path d="M0 0 C3.3 0 6.6 0 10 0 C10 0.33 10 0.66 10 1 C7.36 1 4.72 1 2 1 C2 3.64 2 6.28 2 9 C4.31 9 6.62 9 9 9 C9 9.66 9 10.32 9 11 C6.69 11 4.38 11 2 11 C2 13.97 2 16.94 2 20 C1.34 20 0.68 20 0 20 C0 13.4 0 6.8 0 0 Z " fill="#0E0E0E" transform="translate(439,560)"/>
<path d="M0 0 C1.32 0 2.64 0 4 0 C4 6.6 4 13.2 4 20 C2.68 20 1.36 20 0 20 C0 13.4 0 6.8 0 0 Z " fill="#E6E6E6" transform="translate(335,560)"/>
<path d="M0 0 C0.33 0 0.66 0 1 0 C1.12117188 0.69867187 1.24234375 1.39734375 1.3671875 2.1171875 C1.53476562 3.02726563 1.70234375 3.93734375 1.875 4.875 C2.03742188 5.77992188 2.19984375 6.68484375 2.3671875 7.6171875 C2.83044703 10.16505988 2.83044703 10.16505988 5 12 C8.08347826 12.16681109 8.08347826 12.16681109 11 12 C11 12.66 11 13.32 11 14 C10.34 14 9.68 14 9 14 C9 14.99 9 15.98 9 17 C10.98 17.33 12.96 17.66 15 18 C15 18.66 15 19.32 15 20 C11.625 19.75 11.625 19.75 8 19 C6.8125 17 6.8125 17 6 15 C4.67696283 14.6278958 3.34262065 14.29369827 2 14 C-0.28062828 10.57905758 -0.21925007 9.31812778 -0.125 5.3125 C-0.10695313 4.31863281 -0.08890625 3.32476563 -0.0703125 2.30078125 C-0.04710937 1.54152344 -0.02390625 0.78226563 0 0 Z " fill="#202020" transform="translate(459,565)"/>
<path d="M0 0 C2.69990662 1.79993774 4.5418865 3.083773 6 6 C6.06950541 7.54023996 6.08452357 9.08334988 6.0625 10.625 C6.05347656 11.44226563 6.04445313 12.25953125 6.03515625 13.1015625 C6.02355469 13.72804688 6.01195312 14.35453125 6 15 C3 13 3 13 2.5234375 11.08984375 C2.47445313 10.37957031 2.42546875 9.66929687 2.375 8.9375 C2.44379184 5.23149803 2.44379184 5.23149803 1 4 C-2.94836905 3.7367754 -5.60379269 3.91002627 -9 6 C-9 3 -9 3 -7.875 1.3125 C-5.09666177 -0.63233676 -3.32111222 -0.46495571 0 0 Z " fill="#303030" transform="translate(287,559)"/>
<path d="M0 0 C1.32 0 2.64 0 4 0 C5.00486895 2.95670218 6.00306024 5.91561577 7 8.875 C7.28617188 9.71675781 7.57234375 10.55851563 7.8671875 11.42578125 C8.13789062 12.23144531 8.40859375 13.03710938 8.6875 13.8671875 C9.06455078 14.98262939 9.06455078 14.98262939 9.44921875 16.12060547 C10 18 10 18 10 20 C9.01 20 8.02 20 7 20 C6.34 18.02 5.68 16.04 5 14 C2.69 13.67 0.38 13.34 -2 13 C-2 12.67 -2 12.34 -2 12 C0.31 12 2.62 12 5 12 C5 10.68 5 9.36 5 8 C4.34 8 3.68 8 3 8 C3 6.35 3 4.7 3 3 C2.34 3 1.68 3 1 3 C0.67 3.66 0.34 4.32 0 5 C0 3.35 0 1.7 0 0 Z " fill="#1B1B1B" transform="translate(845,560)"/>
<path d="M0 0 C2.62451617 2.62451617 2.5832868 4.4877828 3.125 8.125 C3.29257812 9.22070312 3.46015625 10.31640625 3.6328125 11.4453125 C3.75398437 12.28835938 3.87515625 13.13140625 4 14 C1 15 1 15 -3 15 C-2.44854729 9.76119922 -1.57077907 5.02649303 0 0 Z " fill="#DFDFE0" transform="translate(899,565)"/>
<path d="M0 0 C0.99 0 1.98 0 3 0 C3 4.62 3 9.24 3 14 C2.01 14.33 1.02 14.66 0 15 C-1.32 13.02 -2.64 11.04 -4 9 C-3.67 8.34 -3.34 7.68 -3 7 C-2.34 7 -1.68 7 -1 7 C-0.67 4.69 -0.34 2.38 0 0 Z " fill="#F3F3F3" transform="translate(627,563)"/>
<path d="M0 0 C0.99 0 1.98 0 3 0 C3 6.6 3 13.2 3 20 C2.01 20 1.02 20 0 20 C0 13.4 0 6.8 0 0 Z " fill="#ECEDEC" transform="translate(647,560)"/>
<path d="M0 0 C0.66 0 1.32 0 2 0 C2 5.94 2 11.88 2 18 C4.64 18 7.28 18 10 18 C10 18.66 10 19.32 10 20 C6.7 20 3.4 20 0 20 C0 13.4 0 6.8 0 0 Z " fill="#161616" transform="translate(513,560)"/>
<path d="M0 0 C0.99 0 1.98 0 3 0 C3 5.61 3 11.22 3 17 C1.68 17.33 0.36 17.66 -1 18 C-0.505 9.09 -0.505 9.09 0 0 Z " fill="#3A3A3B" transform="translate(216,559)"/>
<path d="M0 0 C2.18975773 3.28463659 2.99806563 6.20696275 4 10 C2 12 2 12 -1.125 12.125 C-2.548125 12.063125 -2.548125 12.063125 -4 12 C-3.34 8.7 -2.68 5.4 -2 2 C-1.34 2 -0.68 2 0 2 C0 1.34 0 0.68 0 0 Z " fill="#555555" transform="translate(727,560)"/>
<path d="M0 0 C0.33 0 0.66 0 1 0 C1 6.6 1 13.2 1 20 C0.67 20 0.34 20 0 20 C-0.33 18.35 -0.66 16.7 -1 15 C-1.99 15.33 -2.98 15.66 -4 16 C-4.08096803 14.54257537 -4.13917774 13.08387193 -4.1875 11.625 C-4.22230469 10.81289063 -4.25710938 10.00078125 -4.29296875 9.1640625 C-4.19628906 8.44992187 -4.09960938 7.73578125 -4 7 C-3.01 6.34 -2.02 5.68 -1 5 C-0.27034634 2.43717258 -0.27034634 2.43717258 0 0 Z " fill="#C0C1C1" transform="translate(438,560)"/>
<path d="M0 0 C0 6.93 0 13.86 0 21 C-0.33 20.01 -0.66 19.02 -1 18 C-2.65 18.66 -4.3 19.32 -6 20 C-5.01 18.515 -5.01 18.515 -4 17 C-3.68279999 13.53242718 -3.53641312 10.10662013 -3.43359375 6.62890625 C-3.35453602 4.74870715 -3.18434812 2.87280927 -3 1 C-1 0 -1 0 0 0 Z " fill="#EBEBEB" transform="translate(222,559)"/>
<path d="M0 0 C2.31 0 4.62 0 7 0 C7.625 2.375 7.625 2.375 8 5 C6 7 6 7 2.875 7.125 C1.451875 7.063125 1.451875 7.063125 0 7 C0 4.69 0 2.38 0 0 Z " fill="#E7E8E8" transform="translate(617,562)"/>
<path d="M0 0 C2.31 0 4.62 0 7 0 C7.625 2.375 7.625 2.375 8 5 C6 7 6 7 2.875 7.125 C1.451875 7.063125 1.451875 7.063125 0 7 C0 4.69 0 2.38 0 0 Z " fill="#DFDFDF" transform="translate(226,562)"/>
<path d="M0 0 C0.33 0.99 0.66 1.98 1 3 C-1.05078125 3.22786458 -3.1015625 3.45572917 -5.15234375 3.68359375 C-7.01140229 3.81886614 -7.01140229 3.81886614 -8 5 C-8.23192865 6.51469448 -8.41215238 8.03754562 -8.5625 9.5625 C-8.64628906 10.38878906 -8.73007812 11.21507812 -8.81640625 12.06640625 C-8.87699219 12.70449219 -8.93757812 13.34257813 -9 14 C-9.99 14.33 -10.98 14.66 -12 15 C-12.77162899 6.16913484 -12.77162899 6.16913484 -9.9375 1.875 C-6.35870823 -0.40933517 -4.16952449 -0.40877691 0 0 Z " fill="#434344" transform="translate(688,559)"/>
<path d="M0 0 C0.99 1.485 0.99 1.485 2 3 C3.97747122 3.36297936 3.97747122 3.36297936 6.125 3.1875 C7.40375 3.125625 8.6825 3.06375 10 3 C10 3.33 10 3.66 10 4 C7.69 4 5.38 4 3 4 C3 6.31 3 8.62 3 11 C5.64 11 8.28 11 11 11 C11 11.66 11 12.32 11 13 C7.37 13 3.74 13 0 13 C0 8.71 0 4.42 0 0 Z " fill="#383939" transform="translate(965,567)"/>
<path d="M0 0 C1.4540625 0.495 1.4540625 0.495 2.9375 1 C5.62149574 2.05173363 5.62149574 2.05173363 7 2 C7 8.6 7 15.2 7 22 C6.67 22 6.34 22 6 22 C6 16.39 6 10.78 6 5 C5.01 5 4.02 5 3 5 C2.67 5.99 2.34 6.98 2 8 C1.34 8 0.68 8 0 8 C-0.38063221 5.6739143 -0.71269945 3.33944736 -1 1 C-0.67 0.67 -0.34 0.34 0 0 Z " fill="#E5E5E5" transform="translate(148,558)"/>
<path d="M0 0 C0.66 0 1.32 0 2 0 C2 2.97 2 5.94 2 9 C4.64 9 7.28 9 10 9 C10 9.33 10 9.66 10 10 C7.36 10 4.72 10 2 10 C2 13.63 2 17.26 2 21 C1.34 21 0.68 21 0 21 C0 14.07 0 7.14 0 0 Z " fill="#141415" transform="translate(914,559)"/>
<path d="M0 0 C1.32 0 2.64 0 4 0 C4 1.32 4 2.64 4 4 C3.34 4 2.68 4 2 4 C2 9.28 2 14.56 2 20 C1.34 20 0.68 20 0 20 C0 13.4 0 6.8 0 0 Z " fill="#121212" transform="translate(297,560)"/>
<path d="M0 0 C1.32 0.33 2.64 0.66 4 1 C3.67 1.99 3.34 2.98 3 4 C2.85596652 5.33363703 2.75409577 6.67218046 2.68359375 8.01171875 C2.64169922 8.76904297 2.59980469 9.52636719 2.55664062 10.30664062 C2.51732422 11.09232422 2.47800781 11.87800781 2.4375 12.6875 C2.39431641 13.48478516 2.35113281 14.28207031 2.30664062 15.10351562 C2.20072632 17.06881447 2.09987449 19.03438496 2 21 C1.34 21 0.68 21 0 21 C0 14.07 0 7.14 0 0 Z " fill="#303130" transform="translate(631,559)"/>
<path d="M0 0 C1.32 0.33 2.64 0.66 4 1 C3.84660156 1.50015625 3.69320313 2.0003125 3.53515625 2.515625 C2.80542604 5.90327766 2.63643523 9.29961519 2.4375 12.75 C2.39431641 13.44738281 2.35113281 14.14476562 2.30664062 14.86328125 C2.20110404 16.57531922 2.1001009 18.28763561 2 20 C1.34 20 0.68 20 0 20 C0 13.4 0 6.8 0 0 Z " fill="#111111" transform="translate(339,560)"/>
<path d="M0 0 C1.32 0.33 2.64 0.66 4 1 C4.35789474 6.36842105 4.35789474 6.36842105 2.9375 8.875 C-0.07482516 10.62409203 -2.59502627 10.30401551 -6 10 C-6.99 9.34 -7.98 8.68 -9 8 C-9 7.34 -9 6.68 -9 6 C-6.03 6.33 -3.06 6.66 0 7 C0 4.69 0 2.38 0 0 Z " fill="#202121" transform="translate(197,570)"/>
<path d="M0 0 C1.99954746 -0.04254356 4.00041636 -0.04080783 6 0 C7 1 7 1 7.125 3.5 C7 6 7 6 6 7 C4.00041636 7.04080783 1.99954746 7.04254356 0 7 C0 4.69 0 2.38 0 0 Z " fill="#F0F0F0" transform="translate(951,562)"/>
<path d="M0 0 C0.66 0 1.32 0 2 0 C2 6.6 2 13.2 2 20 C1.01 20 0.02 20 -1 20 C-1.33 18.68 -1.66 17.36 -2 16 C-1.34 16 -0.68 16 0 16 C0 10.72 0 5.44 0 0 Z " fill="#101010" transform="translate(748,560)"/>
<path d="M0 0 C0.99 0 1.98 0 3 0 C3.05395478 1.62463842 3.09277195 3.24978541 3.125 4.875 C3.14820313 5.77992188 3.17140625 6.68484375 3.1953125 7.6171875 C3 10 3 10 1 12 C-0.32 9.03 -1.64 6.06 -3 3 C-2.01 2.01 -1.02 1.02 0 0 Z " fill="#ECECEC" transform="translate(960,568)"/>
<path d="M0 0 C0.99 0 1.98 0 3 0 C2.51358785 6.84817102 1.64006048 13.33042073 0 20 C-1.32 19.67 -2.64 19.34 -4 19 C-3.01 19 -2.02 19 -1 19 C-1.01160156 18.13117187 -1.02320313 17.26234375 -1.03515625 16.3671875 C-1.04417969 15.21476563 -1.05320312 14.06234375 -1.0625 12.875 C-1.07410156 11.73804688 -1.08570313 10.60109375 -1.09765625 9.4296875 C-1.005327 6.1870844 -0.61389906 3.18067388 0 0 Z " fill="#444444" transform="translate(907,560)"/>
<path d="M0 0 C0.33 0 0.66 0 1 0 C1.24798276 2.95786664 1.47411854 5.91461298 1.6875 8.875 C1.76033203 9.71675781 1.83316406 10.55851563 1.90820312 11.42578125 C1.96298828 12.23144531 2.01777344 13.03710938 2.07421875 13.8671875 C2.13182373 14.61081543 2.18942871 15.35444336 2.2487793 16.12060547 C2.12563354 17.05090576 2.12563354 17.05090576 2 18 C1.01 18.66 0.02 19.32 -1 20 C-1.02888514 16.85418577 -1.04675923 13.70840531 -1.0625 10.5625 C-1.07087891 9.66466797 -1.07925781 8.76683594 -1.08789062 7.84179688 C-1.09111328 6.98779297 -1.09433594 6.13378906 -1.09765625 5.25390625 C-1.10551147 4.06776733 -1.10551147 4.06776733 -1.11352539 2.85766602 C-1 1 -1 1 0 0 Z " fill="#F4F4F4" transform="translate(790,560)"/>
<path d="M0 0 C0.33 0 0.66 0 1 0 C1 4.95 1 9.9 1 15 C-3.37837838 9.16216216 -3.37837838 9.16216216 -5 6 C-4.67 5.01 -4.34 4.02 -4 3 C-3.01 3 -2.02 3 -1 3 C-0.67 2.01 -0.34 1.02 0 0 Z " fill="#F0F1F1" transform="translate(307,559)"/>
<path d="M0 0 C0.99 0 1.98 0 3 0 C3 0.99 3 1.98 3 3 C2.34 3 1.68 3 1 3 C1.33 3.66 1.66 4.32 2 5 C2.0716735 7.55157655 2.09308442 10.07472971 2.0625 12.625 C2.05798828 13.33140625 2.05347656 14.0378125 2.04882812 14.765625 C2.03703875 16.51045275 2.01910324 18.255237 2 20 C1.34 20 0.68 20 0 20 C0 13.4 0 6.8 0 0 Z " fill="#121212" transform="translate(658,560)"/>
<path d="M0 0 C0.66 0 1.32 0 2 0 C2.83854735 6.90188971 3.01593448 13.11422188 2 20 C1.34 20 0.68 20 0 20 C0 13.4 0 6.8 0 0 Z " fill="#090909" transform="translate(615,560)"/>
<path d="M0 0 C2.53408774 1.26704387 2.93209972 2.43123157 4.1875 4.9375 C4.55230469 5.64777344 4.91710937 6.35804688 5.29296875 7.08984375 C5.52628906 7.72019531 5.75960938 8.35054687 6 9 C5.67 9.66 5.34 10.32 5 11 C4.01 11.33 3.02 11.66 2 12 C1.34 13.32 0.68 14.64 0 16 C0 10.72 0 5.44 0 0 Z " fill="#CECDCF" transform="translate(341,564)"/>
<path d="M0 0 C0.33 0 0.66 0 1 0 C1 6.6 1 13.2 1 20 C0.01 20 -0.98 20 -2 20 C-2.99 16.7 -3.98 13.4 -5 10 C-3.02 10.99 -3.02 10.99 -1 12 C-0.67 8.04 -0.34 4.08 0 0 Z " fill="#B9BABA" transform="translate(614,560)"/>
<path d="M0 0 C-0.99 0.495 -0.99 0.495 -2 1 C-1.67 2.32 -1.34 3.64 -1 5 C-2.32 5 -3.64 5 -5 5 C-5 9.95 -5 14.9 -5 20 C-5.33 20 -5.66 20 -6 20 C-6 13.4 -6 6.8 -6 0 C-3.50907189 -1.24546405 -2.58919267 -0.7767578 0 0 Z " fill="#CAC8CC" transform="translate(756,560)"/>
<path d="M0 0 C0.33 0 0.66 0 1 0 C1 6.6 1 13.2 1 20 C0.67 20 0.34 20 0 20 C-0.33 18.35 -0.66 16.7 -1 15 C-1.66 15 -2.32 15 -3 15 C-4.125 10.25 -4.125 10.25 -3 8 C-2.34 8 -1.68 8 -1 8 C-0.67 5.36 -0.34 2.72 0 0 Z " fill="#EFEFEF" transform="translate(735,560)"/>
<path d="M0 0 C0.33 0.99 0.66 1.98 1 3 C-0.216875 2.9175 -1.43375 2.835 -2.6875 2.75 C-6.16639526 2.72528316 -6.93832664 2.95888443 -10 5 C-10.66 5.66 -11.32 6.32 -12 7 C-11.72776186 3.64239623 -11.41629629 2.35682539 -8.8125 0.125 C-5.41866747 -1.23253301 -3.49402134 -0.89381941 0 0 Z " fill="#3A3A3A" transform="translate(273,560)"/>
<path d="M0 0 C0.33 0 0.66 0 1 0 C1 4.95 1 9.9 1 15 C-2.01582521 13.49208739 -2.54466959 11.22009097 -3.6640625 8.14453125 C-4 6 -4 6 -2.25 2.5 C-1.5075 1.675 -0.765 0.85 0 0 Z " fill="#CBCCCC" transform="translate(868,560)"/>
<path d="M0 0 C0 0.33 0 0.66 0 1 C-1.98 1.66 -3.96 2.32 -6 3 C-6.03738281 3.62648438 -6.07476562 4.25296875 -6.11328125 4.8984375 C-6.17902344 5.71570313 -6.24476563 6.53296875 -6.3125 7.375 C-6.37050781 8.18710937 -6.42851562 8.99921875 -6.48828125 9.8359375 C-7 12 -7 12 -10 14 C-10.61785886 4.0456073 -10.61785886 4.0456073 -8.375 0.25 C-5.21337667 -1.41401228 -3.37982503 -0.92177046 0 0 Z " fill="#454545" transform="translate(468,561)"/>
<path d="M0 0 C3.10551666 3.10551666 3.81323934 4.89198233 5 9 C4.01 9.33 3.02 9.66 2 10 C1.67 11.98 1.34 13.96 1 16 C0.67 16 0.34 16 0 16 C0 10.72 0 5.44 0 0 Z " fill="#C5C4C6" transform="translate(299,564)"/>
<path d="M0 0 C0.33 0 0.66 0 1 0 C1.33 3.96 1.66 7.92 2 12 C2.66 12 3.32 12 4 12 C3.67 11.01 3.34 10.02 3 9 C3.99 8.67 4.98 8.34 6 8 C5.01 11.96 4.02 15.92 3 20 C2.67 20 2.34 20 2 20 C2 18.02 2 16.04 2 14 C1.34 14 0.68 14 0 14 C0 9.38 0 4.76 0 0 Z " fill="#CCCCCD" transform="translate(492,560)"/>
<path d="M0 0 C3.3 0 6.6 0 10 0 C10 0.66 10 1.32 10 2 C10.99 2.33 11.98 2.66 13 3 C13 4.98 13 6.96 13 9 C12.01 8.67 11.02 8.34 10 8 C9.3125 5.9375 9.3125 5.9375 9 4 C8.071875 3.896875 7.14375 3.79375 6.1875 3.6875 C3 3 3 3 0 0 Z " fill="#5F605F" transform="translate(948,559)"/>
<path d="M0 0 C0.99 0 1.98 0 3 0 C3.33 2.31 3.66 4.62 4 7 C3.34 6.67 2.68 6.34 2 6 C1.67 10.29 1.34 14.58 1 19 C0.67 19 0.34 19 0 19 C0 12.73 0 6.46 0 0 Z " fill="#0C0C0C" transform="translate(793,560)"/>
<path d="M0 0 C7.23809524 -0.36190476 7.23809524 -0.36190476 10.5 1.1875 C12 3 12 3 12.25 5.6875 C12.1675 6.450625 12.085 7.21375 12 8 C11.649375 7.360625 11.29875 6.72125 10.9375 6.0625 C8.22815794 3.17836168 5.84141089 3.2899178 2 3 C2 2.34 2 1.68 2 1 C1.34 0.67 0.68 0.34 0 0 Z " fill="#373838" transform="translate(615,559)"/>
<path d="M0 0 C2 1 2 1 2.8515625 3.28515625 C3.10679687 4.20167969 3.36203125 5.11820312 3.625 6.0625 C3.88539063 6.98160156 4.14578125 7.90070313 4.4140625 8.84765625 C4.60742188 9.55792969 4.80078125 10.26820313 5 11 C4.34 10.67 3.68 10.34 3 10 C3 9.01 3 8.02 3 7 C1.02 7.99 1.02 7.99 -1 9 C-1.80967438 6.08517222 -2.21845993 4.53886783 -1.0625 1.6875 C-0.711875 1.130625 -0.36125 0.57375 0 0 Z " fill="#D6D6D6" transform="translate(939,449)"/>
<path d="M0 0 C2.95183101 2.95183101 3.08663988 5.95511947 4 10 C3.01 10 2.02 10 1 10 C0.67 8.02 0.34 6.04 0 4 C-2.64 4 -5.28 4 -8 4 C-8 3.67 -8 3.34 -8 3 C-6.865625 2.87625 -5.73125 2.7525 -4.5625 2.625 C-3.386875 2.41875 -2.21125 2.2125 -1 2 C-0.67 1.34 -0.34 0.68 0 0 Z " fill="#3E3E3E" transform="translate(730,570)"/>
<path d="M0 0 C3.08669204 3.08669204 3.44855089 3.91927658 4 8 C2.68 8 1.36 8 0 8 C-0.99 8.66 -1.98 9.32 -3 10 C-2.01 6.7 -1.02 3.4 0 0 Z " fill="#D8D8D9" transform="translate(807,449)"/>
<path d="M0 0 C0.33 0 0.66 0 1 0 C1 4.62 1 9.24 1 14 C-3.5 8.375 -3.5 8.375 -4 5 C-2.68 5.33 -1.36 5.66 0 6 C0 4.02 0 2.04 0 0 Z " fill="#E6E6E7" transform="translate(668,560)"/>
<path d="M0 0 C3.375 -0.1875 3.375 -0.1875 7 0 C9.35119399 3.52679099 9.21443452 5.02879485 9.125 9.1875 C9.10695313 10.27417969 9.08890625 11.36085938 9.0703125 12.48046875 C9.03550781 13.72763672 9.03550781 13.72763672 9 15 C8.67 15 8.34 15 8 15 C7.67 11.7 7.34 8.4 7 5 C5.5459375 4.5978125 5.5459375 4.5978125 4.0625 4.1875 C3.051875 3.795625 2.04125 3.40375 1 3 C0.67 2.01 0.34 1.02 0 0 Z " fill="#696A69" transform="translate(423,559)"/>
<path d="M0 0 C2.12508244 3.18762365 2.5020163 5.26512223 3 9 C2.01 9 1.02 9 0 9 C-0.33 7.02 -0.66 5.04 -1 3 C-3.31 3 -5.62 3 -8 3 C-8 2.67 -8 2.34 -8 2 C-6.865625 1.855625 -5.73125 1.71125 -4.5625 1.5625 C-1.19222799 1.38828522 -1.19222799 1.38828522 0 0 Z " fill="#353536" transform="translate(609,571)"/>
<path d="M0 0 C0.66 0 1.32 0 2 0 C2 6.6 2 13.2 2 20 C1.01 20 0.02 20 -1 20 C-1 18.68 -1 17.36 -1 16 C-0.34 16 0.32 16 1 16 C0.67 10.72 0.34 5.44 0 0 Z " fill="#0C0B0D" transform="translate(643,560)"/>
<path d="M0 0 C0 0.66 0 1.32 0 2 C-0.99 2 -1.98 2 -3 2 C-3.33 2.99 -3.66 3.98 -4 5 C-7.3 5.33 -10.6 5.66 -14 6 C-11.74402173 3.74402173 -9.95396133 3.03425808 -7 1.875 C-6.113125 1.52179688 -5.22625 1.16859375 -4.3125 0.8046875 C-2 0 -2 0 0 0 Z " fill="#224AC0" transform="translate(557,146)"/>
<path d="M0 0 C2.64 0 5.28 0 8 0 C8.33 1.98 8.66 3.96 9 6 C8.67 5.01 8.34 4.02 8 3 C5.36 3 2.72 3 0 3 C0 2.01 0 1.02 0 0 Z " fill="#E0E0E0" transform="translate(498,574)"/>
<path d="M0 0 C0.33 0.66 0.66 1.32 1 2 C1.66 2.33 2.32 2.66 3 3 C1.515 8.445 1.515 8.445 0 14 C-0.66 13.34 -1.32 12.68 -2 12 C-1.66887313 7.89402683 -1.15559618 3.96204403 0 0 Z " fill="#454646" transform="translate(897,562)"/>
<path d="M0 0 C3.63 0 7.26 0 11 0 C11 0.66 11 1.32 11 2 C8.03 2 5.06 2 2 2 C2 3.98 2 5.96 2 8 C1.67 8 1.34 8 1 8 C0.67 5.36 0.34 2.72 0 0 Z " fill="#323232" transform="translate(241,560)"/>
<path d="M0 0 C0.33 0 0.66 0 1 0 C1 4.95 1 9.9 1 15 C0.67 15 0.34 15 0 15 C-0.33 13.02 -0.66 11.04 -1 9 C-1.99 9.495 -1.99 9.495 -3 10 C-2.01 6.7 -1.02 3.4 0 0 Z " fill="#C8C9C9" transform="translate(805,565)"/>
<path d="M0 0 C1.32 1.65 2.64 3.3 4 5 C3.690625 5.53625 3.38125 6.0725 3.0625 6.625 C1.82172561 9.3984957 1.4090325 12.00042837 1 15 C0.67 15 0.34 15 0 15 C0 10.05 0 5.1 0 0 Z " fill="#E6E5E6" transform="translate(634,565)"/>
<path d="M0 0 C2.8290723 2.8290723 3.37611108 3.38144425 4 7 C3.01 7 2.02 7 1 7 C1 9.64 1 12.28 1 15 C0.67 15 0.34 15 0 15 C0 10.05 0 5.1 0 0 Z " fill="#DBDADB" transform="translate(860,565)"/>
<path d="M0 0 C0.99 0 1.98 0 3 0 C3 1.32 3 2.64 3 4 C2.34 4 1.68 4 1 4 C1 8.95 1 13.9 1 19 C0.67 19 0.34 19 0 19 C0 12.73 0 6.46 0 0 Z " fill="#0A0A0A" transform="translate(171,560)"/>
<path d="M0 0 C0.99 0.33 1.98 0.66 3 1 C3.70491267 3.32206525 4.37212429 5.65593068 5 8 C5.66 8.33 6.32 8.66 7 9 C6.34 9 5.68 9 5 9 C4.67 9.66 4.34 10.32 4 11 C3.32591692 9.73308493 2.66099503 8.46129251 2 7.1875 C1.62875 6.47980469 1.2575 5.77210938 0.875 5.04296875 C0 3 0 3 0 0 Z " fill="#252626" transform="translate(548,560)"/>
<path d="M0 0 C2.31 0 4.62 0 7 0 C6.38125 0.4125 5.7625 0.825 5.125 1.25 C2.93231719 3.05573879 2.07211583 4.4090534 1 7 C3.64 7 6.28 7 9 7 C9 7.33 9 7.66 9 8 C6.03 8 3.06 8 0 8 C0 5.36 0 2.72 0 0 Z " fill="#C1C2C2" transform="translate(816,570)"/>
<path d="M0 0 C1.32 0.33 2.64 0.66 4 1 C5.125 3.9375 5.125 3.9375 6 7 C6.66 7.66 7.32 8.32 8 9 C6.68 9.33 5.36 9.66 4 10 C2.68 6.7 1.36 3.4 0 0 Z " fill="#2D2E2F" transform="translate(874,560)"/>
<path d="M0 0 C0.99 0 1.98 0 3 0 C6.875 6.75 6.875 6.75 8 9 C6.68 9.33 5.36 9.66 4 10 C2.68 6.7 1.36 3.4 0 0 Z " fill="#222323" transform="translate(753,560)"/>
<path d="M0 0 C1.32 0 2.64 0 4 0 C4.33 2.64 4.66 5.28 5 8 C4.34 7.34 3.68 6.68 3 6 C3 5.01 3 4.02 3 3 C2.34 3 1.68 3 1 3 C1 4.65 1 6.3 1 8 C-0.42944945 5.64561267 -1.08661261 4.51967567 -0.625 1.75 C-0.41875 1.1725 -0.2125 0.595 0 0 Z " fill="#202020" transform="translate(500,560)"/>
<path d="M0 0 C0.94875 0.04125 1.8975 0.0825 2.875 0.125 C2.875 1.115 2.875 2.105 2.875 3.125 C-0.43614834 4.25380057 -3.71478257 5.33802675 -7.125 6.125 C-4.34782609 0.17391304 -4.34782609 0.17391304 0 0 Z " fill="#585959" transform="translate(284.125,558.875)"/>
<path d="M0 0 C1.32 0 2.64 0 4 0 C3.75 2.875 3.75 2.875 3 6 C0.9375 7.375 0.9375 7.375 -1 8 C-0.67 5.36 -0.34 2.72 0 0 Z " fill="#424141" transform="translate(828,577)"/>
<path d="M0 0 C0.33 0 0.66 0 1 0 C1.12117187 0.68707031 1.24234375 1.37414062 1.3671875 2.08203125 C1.53476562 2.98308594 1.70234375 3.88414062 1.875 4.8125 C2.03742187 5.70582031 2.19984375 6.59914063 2.3671875 7.51953125 C2.91188449 10.22727846 2.91188449 10.22727846 5 13 C3.68 13 2.36 13 1 13 C0 12 0 12 -0.09765625 9.27734375 C-0.08605469 8.17519531 -0.07445312 7.07304688 -0.0625 5.9375 C-0.05347656 4.83277344 -0.04445313 3.72804688 -0.03515625 2.58984375 C-0.02355469 1.73519531 -0.01195312 0.88054688 0 0 Z " fill="#1C1C1C" transform="translate(677,565)"/>
<path d="M0 0 C0.33 0 0.66 0 1 0 C1.19294408 4.82360189 0.75747614 8.49646738 -1 13 C-1.99 11.68 -2.98 10.36 -4 9 C-3.67 8.34 -3.34 7.68 -3 7 C-2.34 7 -1.68 7 -1 7 C-0.67 4.69 -0.34 2.38 0 0 Z " fill="#D6D6D6" transform="translate(627,563)"/>
<path d="M0 0 C0.99 0 1.98 0 3 0 C1.84414715 3.91211733 0.64465038 6.8745041 -2 10 C-2.66 9.34 -3.32 8.68 -4 8 C-2.68 5.36 -1.36 2.72 0 0 Z " fill="#252626" transform="translate(407,560)"/>
<path d="M0 0 C0.33 0 0.66 0 1 0 C1 6.27 1 12.54 1 19 C0.01 19 -0.98 19 -2 19 C-2 18.01 -2 17.02 -2 16 C-1.34 16 -0.68 16 0 16 C0 10.72 0 5.44 0 0 Z " fill="#060606" transform="translate(351,560)"/>
<path d="M0 0 C0.66 1.32 1.32 2.64 2 4 C1.01 4.495 1.01 4.495 0 5 C-0.47001033 8.27555608 -0.47001033 8.27555608 -0.625 12.0625 C-0.69976563 13.35285156 -0.77453125 14.64320313 -0.8515625 15.97265625 C-0.90054688 16.97167969 -0.94953125 17.97070312 -1 19 C-1.33 19 -1.66 19 -2 19 C-2 13.72 -2 8.44 -2 3 C-1.34 3 -0.68 3 0 3 C0 2.01 0 1.02 0 0 Z " fill="#4B4A4D" transform="translate(861,561)"/>
<path d="M0 0 C0.66 0 1.32 0 2 0 C2.33 2.64 2.66 5.28 3 8 C1.68 8 0.36 8 -1 8 C-0.67 5.36 -0.34 2.72 0 0 Z " fill="#D9D8D9" transform="translate(501,563)"/>
<path d="M0 0 C0.99 0 1.98 0 3 0 C3 6.27 3 12.54 3 19 C2.67 19 2.34 19 2 19 C1.93941406 17.87980469 1.87882813 16.75960937 1.81640625 15.60546875 C1.73198576 14.13280016 1.64733851 12.66014456 1.5625 11.1875 C1.52318359 10.44951172 1.48386719 9.71152344 1.44335938 8.95117188 C1.25618965 5.76928658 1.01279207 3.03837622 0 0 Z " fill="#010202" transform="translate(805,560)"/>
<path d="M0 0 C0.99 0 1.98 0 3 0 C3 2.64 3 5.28 3 8 C2.01 8 1.02 8 0 8 C0 5.36 0 2.72 0 0 Z " fill="#585859" transform="translate(142,558)"/>
<path d="M0 0 C0.99 0 1.98 0 3 0 C6 5.75 6 5.75 6 8 C5.01 8 4.02 8 3 8 C0 2.25 0 2.25 0 0 Z " fill="#252526" transform="translate(955,572)"/>
<path d="M0 0 C0.99 0 1.98 0 3 0 C4.625 2.75 4.625 2.75 6 6 C5.34 7.32 4.68 8.64 4 10 C2.68 6.7 1.36 3.4 0 0 Z " fill="#222223" transform="translate(397,560)"/>
<path d="M0 0 C0.33 0 0.66 0 1 0 C1.25 7.625 1.25 7.625 -1 11 C-1.66 11 -2.32 11 -3 11 C-2.25 3.375 -2.25 3.375 0 0 Z " fill="#EEEEEE" transform="translate(911,562)"/>
<path d="M0 0 C2.31 0.33 4.62 0.66 7 1 C7.33 1.99 7.66 2.98 8 4 C5.36 3.67 2.72 3.34 0 3 C0 2.01 0 1.02 0 0 Z " fill="#363737" transform="translate(192,559)"/>
<path d="M0 0 C0.66 0.66 1.32 1.32 2 2 C-6.261959 6.59225513 -6.261959 6.59225513 -11 6 C-8.84733158 3.84733158 -7.15226256 3.06525538 -4.375 1.875 C-3.55773437 1.52179688 -2.74046875 1.16859375 -1.8984375 0.8046875 C-1.27195312 0.53914063 -0.64546875 0.27359375 0 0 Z " fill="#224BC2" transform="translate(637,343)"/>
<path d="M0 0 C0.90492188 0.38285156 1.80984375 0.76570312 2.7421875 1.16015625 C4.10730469 1.73056641 4.10730469 1.73056641 5.5 2.3125 C6.19867187 2.61285156 6.89734375 2.91320312 7.6171875 3.22265625 C7.2871875 3.88265625 6.9571875 4.54265625 6.6171875 5.22265625 C5.15651551 4.77183156 3.69870718 4.31172088 2.2421875 3.84765625 C1.43007813 3.59242188 0.61796875 3.3371875 -0.21875 3.07421875 C-2.3828125 2.22265625 -2.3828125 2.22265625 -4.3828125 0.22265625 C-2.3828125 -0.77734375 -2.3828125 -0.77734375 0 0 Z " fill="#0C3DBE" transform="translate(621.3828125,158.77734375)"/>
<path d="M0 0 C0 0.99 0 1.98 0 3 C-1.28745036 3.38922918 -2.58019597 3.76098036 -3.875 4.125 C-4.95394531 4.43824219 -4.95394531 4.43824219 -6.0546875 4.7578125 C-6.69664062 4.83773437 -7.33859375 4.91765625 -8 5 C-8.66 4.34 -9.32 3.68 -10 3 C-3.375 0 -3.375 0 0 0 Z " fill="#1E4ABF" transform="translate(567,142)"/>
<path d="M0 0 C0.66 0 1.32 0 2 0 C2.33 2.64 2.66 5.28 3 8 C1.68 8 0.36 8 -1 8 C-0.67 5.36 -0.34 2.72 0 0 Z " fill="#E5E5E5" transform="translate(846,563)"/>
<path d="M0 0 C0.66 0 1.32 0 2 0 C2.33 2.64 2.66 5.28 3 8 C1.68 8 0.36 8 -1 8 C-0.67 5.36 -0.34 2.72 0 0 Z " fill="#E3E3E4" transform="translate(725,563)"/>
<path d="M0 0 C0 0.99 0 1.98 0 3 C-2.95664519 4.4783226 -5.74229737 4.06032783 -9 4 C-9 3.34 -9 2.68 -9 2 C-2.25 0 -2.25 0 0 0 Z " fill="#272828" transform="translate(274,576)"/>
<path d="M0 0 C2 3 2 3 2 7 C0.68 7 -0.64 7 -2 7 C-1.125 1.125 -1.125 1.125 0 0 Z " fill="#EBEBEB" transform="translate(604,564)"/>
<path d="M0 0 C2.32472205 2.85306797 3.7508258 5.54074837 5 9 C4.34 9.66 3.68 10.32 3 11 C0.84694043 7.14243493 -0.39253254 4.44870215 0 0 Z " fill="#2C2D2E" transform="translate(174,562)"/>
<path d="M0 0 C1.32 0 2.64 0 4 0 C4.625 2.3125 4.625 2.3125 5 5 C4.01 6.485 4.01 6.485 3 8 C3 6.35 3 4.7 3 3 C2.34 3 1.68 3 1 3 C0.67 3.66 0.34 4.32 0 5 C0 3.35 0 1.7 0 0 Z " fill="#2D2D2D" transform="translate(845,560)"/>
<path d="M0 0 C0.99 0 1.98 0 3 0 C3 2.64 3 5.28 3 8 C2.34 8 1.68 8 1 8 C0.67 5.36 0.34 2.72 0 0 Z " fill="#3A3A3B" transform="translate(986,558)"/>
<path d="M0 0 C1.32 0 2.64 0 4 0 C3.67 0.99 3.34 1.98 3 3 C2.34 3 1.68 3 1 3 C0.67 4.98 0.34 6.96 0 9 C-0.33 9 -0.66 9 -1 9 C-0.67 6.03 -0.34 3.06 0 0 Z " fill="#1F1F20" transform="translate(602,560)"/>
<path d="M0 0 C6.625 0.75 6.625 0.75 10 3 C9.67 3.66 9.34 4.32 9 5 C6.03 4.01 3.06 3.02 0 2 C0 1.34 0 0.68 0 0 Z " fill="#292929" transform="translate(463,559)"/>
<path d="M0 0 C-0.33 0.99 -0.66 1.98 -1 3 C-3.06640625 3.94921875 -3.06640625 3.94921875 -5.5625 4.6875 C-6.38878906 4.93886719 -7.21507812 5.19023437 -8.06640625 5.44921875 C-8.70449219 5.63097656 -9.34257813 5.81273437 -10 6 C-10.33 5.34 -10.66 4.68 -11 4 C-9.5437455 3.32880451 -8.08492133 2.66318193 -6.625 2 C-5.81289063 1.62875 -5.00078125 1.2575 -4.1640625 0.875 C-2 0 -2 0 0 0 Z " fill="#2149BE" transform="translate(594,248)"/>
<path d="M0 0 C1.99097846 2.98646769 2.94124926 5.59687262 4 9 C3.01 9.33 2.02 9.66 1 10 C0.63720544 8.71073008 0.28503302 7.41846728 -0.0625 6.125 C-0.35833984 5.04605469 -0.35833984 5.04605469 -0.66015625 3.9453125 C-1 2 -1 2 0 0 Z " fill="#373739" transform="translate(797,565)"/>
<path d="M0 0 C0.33 0 0.66 0 1 0 C1 3.3 1 6.6 1 10 C0.67 9.34 0.34 8.68 0 8 C-0.66 8 -1.32 8 -2 8 C-2 6.35 -2 4.7 -2 3 C-1.34 3 -0.68 3 0 3 C0 2.01 0 1.02 0 0 Z " fill="#EAEAEA" transform="translate(470,564)"/>
<path d="M0 0 C0.66 0 1.32 0 2 0 C1.01 2.97 0.02 5.94 -1 9 C-1.66 7.68 -2.32 6.36 -3 5 C-1.75 2.25 -1.75 2.25 0 0 Z " fill="#202121" transform="translate(764,560)"/>
<path d="M0 0 C1.32 0 2.64 0 4 0 C4 1.32 4 2.64 4 4 C3.34 4 2.68 4 2 4 C2 5.65 2 7.3 2 9 C1.67 9 1.34 9 1 9 C0.67 6.03 0.34 3.06 0 0 Z " fill="#1A191A" transform="translate(297,560)"/>
<path d="M0 0 C0.66 0 1.32 0 2 0 C2 2.64 2 5.28 2 8 C1.34 8 0.68 8 0 8 C-0.38063221 5.6739143 -0.71269945 3.33944736 -1 1 C-0.67 0.67 -0.34 0.34 0 0 Z " fill="#3A3A3B" transform="translate(148,558)"/>
<path d="M0 0 C0.33 1.98 0.66 3.96 1 6 C-1.02045442 5.39816251 -3.02111039 4.72693904 -5 4 C-5.33 3.34 -5.66 2.68 -6 2 C-2.25 0 -2.25 0 0 0 Z " fill="#E3E9F8" transform="translate(456,201)"/>
<path d="M0 0 C0.66 0 1.32 0 2 0 C2.99 2.31 3.98 4.62 5 7 C4.34 7.66 3.68 8.32 3 9 C0 3.375 0 3.375 0 0 Z " fill="#2B2C2D" transform="translate(862,565)"/>
<path d="M0 0 C0.66 0 1.32 0 2 0 C1.01 2.97 0.02 5.94 -1 9 C-1.66 8.01 -2.32 7.02 -3 6 C-2.01 4.02 -1.02 2.04 0 0 Z " fill="#242525" transform="translate(558,560)"/>
<path d="M0 0 C1.98 0.495 1.98 0.495 4 1 C3.01 1.495 3.01 1.495 2 2 C2.33 3.32 2.66 4.64 3 6 C1.68 6 0.36 6 -1 6 C-0.67 4.02 -0.34 2.04 0 0 Z " fill="#E0DFE0" transform="translate(752,559)"/>
<path d="M0 0 C0.33 0.66 0.66 1.32 1 2 C0.67 2.66 0.34 3.32 0 4 C1.32 4 2.64 4 4 4 C3.67 4.99 3.34 5.98 3 7 C3 6.34 3 5.68 3 5 C0.03 4.505 0.03 4.505 -3 4 C-3 3.01 -3 2.02 -3 1 C-2.01 0.67 -1.02 0.34 0 0 Z " fill="#C2C3C3" transform="translate(471,578)"/>
<path d="M0 0 C1.32 0.33 2.64 0.66 4 1 C4 2.65 4 4.3 4 6 C3.01 6.495 3.01 6.495 2 7 C0.5393715 4.35261084 0 3.10551666 0 0 Z " fill="#EAEAEB" transform="translate(853,573)"/>
<path d="M0 0 C0.33 0 0.66 0 1 0 C0.125 6.875 0.125 6.875 -1 8 C-2.66617115 8.04063832 -4.33388095 8.042721 -6 8 C-6.33 7.34 -6.66 6.68 -7 6 C-6.21625 5.938125 -5.4325 5.87625 -4.625 5.8125 C-3.75875 5.544375 -2.8925 5.27625 -2 5 C-0.62533375 2.52363988 -0.62533375 2.52363988 0 0 Z " fill="#D2D2D2" transform="translate(215,570)"/>
<path d="M0 0 C0.33 0.99 0.66 1.98 1 3 C1.99 2.67 2.98 2.34 4 2 C3.67 4.31 3.34 6.62 3 9 C0.23776722 6.23776722 0.42143709 3.79293383 0 0 Z " fill="#A5A5A6" transform="translate(902,566)"/>
<path d="M0 0 C0.66 0.33 1.32 0.66 2 1 C0.25 4.875 0.25 4.875 -2 6 C-2.66 5.34 -3.32 4.68 -4 4 C-2.68 2.68 -1.36 1.36 0 0 Z " fill="#2F3031" transform="translate(432,573)"/>
<path d="M0 0 C1.134375 0.020625 2.26875 0.04125 3.4375 0.0625 C3.4375 0.3925 3.4375 0.7225 3.4375 1.0625 C2.07625 1.495625 2.07625 1.495625 0.6875 1.9375 C-1.88452908 2.82781776 -4.17596766 3.77744413 -6.5625 5.0625 C-4.14811644 0.07277397 -4.14811644 0.07277397 0 0 Z " fill="#131313" transform="translate(425.5625,559.9375)"/>
<path d="M0 0 C0.99 0.33 1.98 0.66 3 1 C1.25 4.875 1.25 4.875 -1 6 C-1.66 5.34 -2.32 4.68 -3 4 C-2.01 3.67 -1.02 3.34 0 3 C0 2.01 0 1.02 0 0 Z " fill="#E9E9E9" transform="translate(689,481)"/>
</svg>
